<svg width="27" height="27" viewBox="0 0 27 27" fill="none" xmlns="http://www.w3.org/2000/svg">
<path d="M7.64187 13.1201H9.82523V15.3068H7.64187V13.1201ZM22.9254 6.5601V21.8668C22.9254 22.4467 22.6954 23.0029 22.2859 23.413C21.8764 23.823 21.3211 24.0534 20.742 24.0534H5.45851C4.24674 24.0534 3.27515 23.0694 3.27515 21.8668V6.5601C3.27515 5.98016 3.50518 5.42397 3.91464 5.01389C4.3241 4.60381 4.87944 4.37343 5.45851 4.37343H6.55019V2.18677H8.73355V4.37343H17.467V2.18677H19.6503V4.37343H20.742C21.3211 4.37343 21.8764 4.60381 22.2859 5.01389C22.6954 5.42397 22.9254 5.98016 22.9254 6.5601ZM5.45851 8.74676H20.742V6.5601H5.45851V8.74676ZM20.742 21.8668V10.9334H5.45851V21.8668H20.742ZM16.3753 15.3068V13.1201H18.5587V15.3068H16.3753ZM12.0086 15.3068V13.1201H14.1919V15.3068H12.0086ZM7.64187 17.4934H9.82523V19.6801H7.64187V17.4934ZM16.3753 19.6801V17.4934H18.5587V19.6801H16.3753ZM12.0086 19.6801V17.4934H14.1919V19.6801H12.0086Z" fill="#2D3748" fill-opacity="0.32"/>
</svg>
