<svg width="25" height="25" viewBox="0 0 25 25" fill="none" xmlns="http://www.w3.org/2000/svg">
<g clip-path="url(#clip0_106_19)">
<path d="M19.9586 10.5546H20.9683C21.2361 10.5546 21.493 10.661 21.6823 10.8504C21.8717 11.0397 21.9781 11.2965 21.9781 11.5643V21.6616C21.9781 21.9294 21.8717 22.1862 21.6823 22.3756C21.493 22.565 21.2361 22.6713 20.9683 22.6713H4.8127C4.54491 22.6713 4.28808 22.565 4.09872 22.3756C3.90936 22.1862 3.80298 21.9294 3.80298 21.6616L3.80298 11.5643C3.80298 11.2965 3.90936 11.0397 4.09872 10.8504C4.28808 10.661 4.54491 10.5546 4.8127 10.5546H5.82243V9.54489C5.82243 8.6167 6.00525 7.69759 6.36046 6.84005C6.71566 5.98251 7.23629 5.20333 7.89262 4.547C8.54896 3.89067 9.32814 3.37004 10.1857 3.01483C11.0432 2.65963 11.9623 2.47681 12.8905 2.47681C13.8187 2.47681 14.7378 2.65963 15.5954 3.01483C16.4529 3.37004 17.2321 3.89067 17.8884 4.547C18.5447 5.20333 19.0654 5.98251 19.4206 6.84005C19.7758 7.69759 19.9586 8.6167 19.9586 9.54489V10.5546ZM5.82243 12.5741L5.82243 20.6519H19.9586V12.5741L5.82243 12.5741ZM11.8808 14.5935H13.9002L13.9002 18.6324H11.8808L11.8808 14.5935ZM17.9391 10.5546V9.54489C17.9391 8.20591 17.4072 6.92177 16.4604 5.97497C15.5136 5.02817 14.2295 4.49626 12.8905 4.49626C11.5515 4.49626 10.2674 5.02817 9.32059 5.97497C8.37379 6.92177 7.84188 8.20591 7.84188 9.54489L7.84188 10.5546H17.9391Z" fill="white"/>
</g>
<defs>
<clipPath id="clip0_106_19">
<rect width="24.2334" height="24.2334" fill="white" transform="translate(0.773926 0.457275)"/>
</clipPath>
</defs>
</svg>
