<svg width="546" height="471" viewBox="0 0 546 471" fill="none" xmlns="http://www.w3.org/2000/svg">
<path d="M545.889 360.564H336.717V239.52H545.889V360.564ZM337.993 359.288H544.612V240.797H337.993V359.288Z" fill="#E0E0E0"/>
<path d="M502.737 304.062H364.731V308.108H502.737V304.062Z" fill="#F0F0F0"/>
<path d="M512.245 319.148H364.731V323.564H512.245V319.148Z" fill="#F0F0F0"/>
<path d="M512.245 334.413H364.731V338.829H512.245V334.413Z" fill="#F0F0F0"/>
<path d="M412.963 282.149H364.731V292.653H412.963V282.149Z" fill="#F0F0F0"/>
<path d="M545.251 240.159H337.393V259.431H545.251V240.159Z" fill="#E0E0E0"/>
<path d="M529.259 256.546C528.991 256.291 531.671 253.062 535.232 249.335C538.793 245.608 541.92 242.788 542.175 243.03C542.43 243.273 539.763 246.514 536.202 250.254C532.641 253.994 529.514 256.801 529.259 256.546Z" fill="white"/>
<path d="M542.201 256.546C541.945 256.801 538.831 253.994 535.257 250.254C531.684 246.515 529.016 243.286 529.284 243.03C529.552 242.775 532.654 245.583 536.227 249.335C539.801 253.087 542.443 256.291 542.201 256.546Z" fill="white"/>
<path d="M288.499 0.457764L80.6414 0.457764V120.238L288.499 120.238V0.457764Z" fill="#E6E6E6"/>
<path d="M245.998 64.3745L107.992 64.3745V68.4204L245.998 68.4204V64.3745Z" fill="#F0F0F0"/>
<path d="M255.506 79.4603L107.992 79.4603V83.8763L255.506 83.8763V79.4603Z" fill="#F0F0F0"/>
<path d="M255.506 94.7249L107.992 94.7249V99.1408L255.506 99.1408V94.7249Z" fill="#F0F0F0"/>
<path d="M156.223 42.4607H107.992V52.9646H156.223V42.4607Z" fill="#F0F0F0"/>
<path d="M288.499 0.457764L80.6414 0.457764V19.7298L288.499 19.7298V0.457764Z" fill="#E0E0E0"/>
<path d="M271.805 16.756C271.537 16.5136 274.217 13.2718 277.778 9.54499C281.339 5.81821 284.465 2.9976 284.721 3.25286C284.976 3.50812 282.308 6.73714 278.748 10.4639C275.187 14.1907 272.06 16.9858 271.805 16.756Z" fill="white"/>
<path d="M284.721 16.756C284.466 17.0113 281.351 14.2034 277.778 10.4639C274.204 6.72432 271.537 3.50806 271.805 3.25281C272.073 2.99755 275.174 5.80539 278.748 9.54493C282.321 13.2845 284.989 16.5135 284.721 16.756Z" fill="white"/>
<path d="M209.777 222.967H0.643066L0.643066 101.91L209.777 101.91V222.967ZM1.91936 221.69H208.5V103.187L1.91936 103.187L1.91936 221.69Z" fill="#E0E0E0"/>
<path d="M166.638 166.465H28.6324V170.511H166.638V166.465Z" fill="#F0F0F0"/>
<path d="M176.146 181.551H28.6324V185.967H176.146V181.551Z" fill="#F0F0F0"/>
<path d="M176.146 196.816H28.6324V201.232H176.146V196.816Z" fill="#F0F0F0"/>
<path d="M76.8636 144.551H28.6324V155.055H76.8636V144.551Z" fill="#F0F0F0"/>
<path d="M209.139 102.548L1.28149 102.548L1.28149 121.82L209.139 121.82V102.548Z" fill="#E0E0E0"/>
<path d="M451.137 250.701H205.705V470.427H451.137V250.701Z" fill="#E6E6E6"/>
<path d="M218.047 181.487H25.786L25.786 381.24H218.047V181.487Z" fill="#F0F0F0"/>
<path d="M218.047 181.487H25.786V203.248H218.047V181.487Z" fill="#E0E0E0"/>
<path d="M41.6634 192.144C41.6284 192.934 41.3625 193.695 40.8986 194.334C40.4347 194.974 39.7933 195.463 39.0539 195.741C38.3146 196.019 37.5099 196.074 36.7397 195.898C35.9695 195.723 35.2677 195.326 34.7213 194.755C34.175 194.185 33.8083 193.466 33.6666 192.689C33.5249 191.912 33.6146 191.11 33.9244 190.384C34.2342 189.657 34.7505 189.038 35.4093 188.602C36.0682 188.166 36.8404 187.933 37.6303 187.933C38.7226 187.959 39.76 188.417 40.5156 189.207C41.2713 189.996 41.684 191.052 41.6634 192.144Z" fill="white"/>
<path d="M58.0385 192.144C58.006 192.937 57.741 193.703 57.2765 194.346C56.8121 194.99 56.1687 195.482 55.4264 195.763C54.6841 196.044 53.8758 196.1 53.1018 195.924C52.3279 195.749 51.6227 195.35 51.0739 194.777C50.5251 194.204 50.1569 193.482 50.0152 192.701C49.8735 191.92 49.9646 191.115 50.277 190.385C50.5894 189.656 51.1095 189.035 51.7724 188.598C52.4353 188.162 53.2119 187.931 54.0054 187.933C55.0977 187.959 56.135 188.417 56.8907 189.207C57.6464 189.996 58.0591 191.052 58.0385 192.144Z" fill="white"/>
<path d="M74.4128 192.144C74.3802 192.937 74.1152 193.703 73.6508 194.346C73.1864 194.99 72.543 195.482 71.8007 195.763C71.0584 196.044 70.25 196.1 69.4761 195.924C68.7022 195.749 67.997 195.35 67.4482 194.777C66.8993 194.204 66.5312 193.482 66.3895 192.701C66.2478 191.92 66.3388 191.115 66.6513 190.385C66.9637 189.656 67.4837 189.035 68.1467 188.598C68.8096 188.162 69.5862 187.931 70.3797 187.933C71.472 187.959 72.5093 188.417 73.265 189.207C74.0207 189.996 74.4333 191.052 74.4128 192.144Z" fill="white"/>
<path d="M518.436 44.1454L273.004 44.1454V288.76H518.436V44.1454Z" fill="#F0F0F0"/>
<path d="M518.436 44.1454L273.004 44.1454V72.7982L518.436 72.7982V44.1454Z" fill="#E0E0E0"/>
<path d="M293.91 58.1846C293.865 59.2262 293.515 60.2317 292.903 61.0762C292.292 61.9207 291.446 62.567 290.47 62.9348C289.495 63.3026 288.433 63.3758 287.416 63.1452C286.399 62.9146 285.472 62.3905 284.751 61.6378C284.029 60.8852 283.545 59.9372 283.357 58.9115C283.17 57.8859 283.288 56.8278 283.696 55.8686C284.105 54.9094 284.787 54.0914 285.656 53.5161C286.526 52.9409 287.545 52.6337 288.588 52.6327C290.029 52.6662 291.398 53.2692 292.395 54.3097C293.393 55.3502 293.937 56.7435 293.91 58.1846Z" fill="white"/>
<path d="M313.909 54.4322C314.617 55.2006 315.083 56.1602 315.249 57.1914C315.415 58.2227 315.274 59.28 314.843 60.2316C314.412 61.1832 313.711 61.9871 312.827 62.543C311.943 63.099 310.914 63.3824 309.87 63.3581C308.826 63.3337 307.812 63.0026 306.954 62.406C306.097 61.8094 305.434 60.9737 305.048 60.003C304.663 59.0324 304.571 57.9696 304.785 56.9473C304.999 55.9249 305.509 54.988 306.252 54.2535C307.292 53.2637 308.682 52.7267 310.117 52.7601C311.553 52.7936 312.917 53.3949 313.909 54.4322Z" fill="white"/>
<path d="M337.023 58.1846C336.978 59.2262 336.628 60.2317 336.017 61.0762C335.405 61.9207 334.559 62.567 333.584 62.9348C332.608 63.3026 331.546 63.3758 330.529 63.1452C329.512 62.9146 328.585 62.3905 327.864 61.6378C327.142 60.8852 326.658 59.9372 326.47 58.9115C326.283 57.8859 326.401 56.8278 326.81 55.8686C327.218 54.9094 327.9 54.0914 328.769 53.5161C329.639 52.9409 330.658 52.6337 331.701 52.6327C333.142 52.6662 334.511 53.2692 335.508 54.3097C336.506 55.3502 337.051 56.7435 337.023 58.1846Z" fill="white"/>
</svg>
