<svg width="67" height="76" viewBox="0 0 67 76" fill="none" xmlns="http://www.w3.org/2000/svg">
<path d="M33.3083 0.285244L32.7084 0.285244L30.9727 0.412881C30.0333 0.469317 29.0992 0.593019 28.1776 0.783017C27.5806 0.86684 26.9884 0.98185 26.4035 1.1276L24.4253 1.67642C21.0582 2.70943 17.8813 4.28275 15.019 6.33488C11.2372 9.07991 8.0793 12.5944 5.75308 16.6473C4.38582 18.9836 3.29777 21.4724 2.51129 24.0626C1.68488 26.8778 1.20906 29.7842 1.09461 32.7159C1.01855 34.256 1.04413 35.7994 1.17119 37.3361C1.17119 38.1146 1.38816 38.8932 1.49026 39.6845C1.57614 40.4821 1.72551 41.2717 1.93696 42.0456C3.08463 47.167 5.41329 51.9494 8.73719 56.0112C12.0611 60.073 16.2882 63.3018 21.0814 65.4401C24.5505 66.937 28.2687 67.7724 32.0447 67.9033C35.9448 68.1178 39.8486 67.5583 43.5314 66.2569L44.6545 65.8357H44.8077L44.9353 65.9123L61.0294 74.0806L60.5572 74.489C58.8342 69.1541 57.175 63.9851 55.5668 59.0203V58.8289L55.7072 58.6885C59.6114 54.7561 62.5097 49.9402 64.1563 44.6492C65.6477 39.812 66.0829 34.711 65.4326 29.6911C64.8541 25.2298 63.4197 20.9221 61.2081 17.0047C59.3016 13.6395 56.8423 10.6193 53.9332 8.07064C51.5331 6.05335 48.8766 4.36248 46.0329 3.04204C43.8812 2.11403 41.6403 1.4084 39.3451 0.936166L36.7925 0.514987L34.9419 0.374594L33.8188 0.298019H33.4359C33.5631 0.283899 33.6916 0.283899 33.8188 0.298019L34.9547 0.298019L36.8053 0.374594L39.3579 0.744711C41.6817 1.18238 43.9531 1.86255 46.135 2.77403C49.0275 4.07877 51.7319 5.76576 54.1757 7.78986C57.1383 10.3272 59.6498 13.3479 61.6037 16.7239C63.8781 20.6834 65.3566 25.0494 65.9559 29.5762C66.6602 34.6737 66.2553 39.8631 64.7689 44.7896C63.1116 50.1907 60.1685 55.109 56.1922 59.1224L56.2688 58.7906C57.8769 63.7554 59.5489 68.9243 61.2846 74.2465L61.5271 75.025L60.7996 74.6549L44.7056 66.4994H44.9864L43.8377 66.9206C40.084 68.2414 36.1079 68.8138 32.1341 68.6053C28.2767 68.4584 24.4806 67.5927 20.941 66.0527C14.189 63.161 8.57142 58.1352 4.94902 51.7454C3.28206 48.7944 2.06469 45.6112 1.3371 42.3009C1.13786 41.5069 0.988664 40.7013 0.890401 39.8887C0.788298 39.0846 0.622382 38.2933 0.584093 37.502C0.238674 32.9607 0.718651 28.3945 2.00078 24.0243C2.80684 21.3985 3.92522 18.8789 5.33191 16.5197C7.71362 12.43 10.9373 8.89312 14.7892 6.14345C17.6987 4.08607 20.9289 2.52486 24.3487 1.52325L26.3525 1.01274C26.9422 0.875942 27.5386 0.769445 28.1393 0.693667C29.0705 0.521236 30.0133 0.418838 30.9599 0.38735L32.7084 0.323551C32.9072 0.296773 33.1077 0.283961 33.3083 0.285244Z" fill="#FD7401"/>
<path d="M40.583 30.0484H38.2218L33.1166 22.8757V18.1661C33.1166 18.1661 29.4664 17.9364 29.9004 24.1009C30.3343 30.2654 29.9004 28.6956 29.9004 28.6956C29.9004 28.6956 22.1533 28.6956 21.5151 29.3975C20.877 30.0995 20.8387 37.5786 20.7494 41.7521C20.7004 42.7581 20.9891 43.7517 21.5695 44.5749C22.15 45.3981 22.9888 46.0038 23.9529 46.2957C24.2231 46.3705 24.502 46.4092 24.7824 46.4105C26.7224 46.4105 36.5882 44.8407 36.5882 44.8407H40.6595L40.583 30.0484Z" fill="#FD7401"/>
<path d="M47.3346 28.7849L45.8797 44.9173H41.8466V29.1168L47.3346 28.7849Z" fill="#FD7401"/>
</svg>
