<svg width="107" height="128" viewBox="0 0 107 128" fill="none" xmlns="http://www.w3.org/2000/svg">
<path d="M75.194 27.1693L68.6211 29.5177L65.8004 20.9282C60.6187 5.08939 44.1035 -3.32139 28.9283 2.02628C13.7532 7.37396 5.67426 24.7443 10.856 40.5831L13.6766 49.1726L7.07819 51.5337C4.56209 52.5096 2.51884 54.4177 1.37316 56.8611C0.227475 59.3046 0.0674818 62.0956 0.926446 64.654L19.2157 120.543C19.5954 121.809 20.2257 122.987 21.0693 124.005C21.9129 125.023 22.9526 125.861 24.1265 126.469C25.3004 127.078 26.5845 127.444 27.9028 127.546C29.221 127.649 30.5463 127.485 31.8 127.065L99.9158 102.7C102.465 101.726 104.537 99.8012 105.697 97.3305C106.856 94.8597 107.012 92.0357 106.131 89.4524L87.8293 33.5635C87.4398 32.3006 86.7999 31.129 85.9477 30.1188C85.0955 29.1085 84.0486 28.2803 82.8693 27.6836C81.6901 27.0868 80.4027 26.7337 79.084 26.6453C77.7653 26.557 76.4423 26.7352 75.194 27.1693ZM23.2743 36.1033C21.8772 31.985 22.128 27.4858 23.9742 23.5482C25.8204 19.6107 29.1188 16.5404 33.1784 14.9807C35.1829 14.2948 37.3051 14.0198 39.4183 14.172C41.5314 14.3242 43.5923 14.9005 45.4779 15.8665C47.3634 16.8325 49.0351 18.1685 50.3932 19.7946C51.7512 21.4208 52.7677 23.3038 53.3821 25.3314L56.19 33.9209L26.0822 44.6928L23.2743 36.1033ZM61.5631 85.7001L66.2344 99.9691C66.3202 100.255 66.2925 100.563 66.157 100.83C66.0216 101.096 65.7887 101.3 65.5069 101.399L58.9595 103.734C58.699 103.806 58.4205 103.775 58.1826 103.647C57.9447 103.518 57.7657 103.302 57.6832 103.045L52.9737 88.8398C50.3769 88.6983 47.8852 87.7669 45.8324 86.1702C43.7795 84.5735 42.2634 82.3879 41.4871 79.9057C40.377 76.6243 40.5795 73.0407 42.0521 69.9052C43.5247 66.7696 46.1532 64.3254 49.3873 63.0842C50.9841 62.5386 52.6744 62.3201 54.3575 62.4417C56.0406 62.5632 57.6819 63.0224 59.1838 63.7918C60.6856 64.5611 62.0172 65.625 63.0991 66.9199C64.1811 68.2149 64.9912 69.7144 65.4814 71.329C66.3025 73.8504 66.3705 76.5566 65.6768 79.116C64.9831 81.6753 63.5579 83.9768 61.5759 85.7384L61.5631 85.7001Z" fill="#FD7401"/>
<path d="M68.3277 29.3645C68.3277 29.5432 56.1391 34.1251 40.9767 39.5749C25.8143 45.0247 13.447 49.4023 13.3832 49.2747C13.3194 49.1471 25.5718 44.5269 40.7469 39.0644C55.9221 33.6018 68.2639 29.1986 68.3277 29.3645Z" fill="#263238"/>
<path d="M82.8008 31.7129C82.8571 31.8237 82.904 31.9389 82.9412 32.0575C83.0433 32.3127 83.1581 32.6446 83.3113 33.053C83.6431 33.9847 84.1026 35.2737 84.6769 36.8819L89.5779 51.1508C91.62 57.2005 94.0577 64.3732 96.7634 72.3373C98.0397 76.3321 99.5458 80.4928 100.95 84.8705C101.701 87.1264 102.026 89.5026 101.907 91.8774C101.799 93.1124 101.447 94.3139 100.873 95.4127C100.26 96.5078 99.4407 97.4742 98.4609 98.2589C96.4891 99.6982 94.3004 100.814 91.9773 101.564L85.4044 103.926L72.9606 108.38L51.8889 115.884L37.6583 120.888L33.8294 122.164L32.8083 122.496C32.6992 122.544 32.5827 122.574 32.4637 122.585C32.4637 122.585 32.5658 122.585 32.7828 122.432L33.7783 122.036L37.6072 120.594L51.7613 115.387L72.7946 107.729L85.213 103.236L91.7859 100.862C94.043 100.143 96.1681 99.0607 98.078 97.659C98.9897 96.9309 99.7523 96.0339 100.324 95.0171C100.865 94.0009 101.191 92.8844 101.282 91.737C101.399 89.4488 101.087 87.1589 100.363 84.9854C98.9842 80.646 97.5292 76.447 96.2146 72.4522C93.56 64.4754 91.1094 57.2771 89.1695 51.2274C87.2295 45.1778 85.5959 40.3151 84.4727 36.8946C83.9367 35.2227 83.5283 33.9209 83.1964 32.9764L82.8901 31.9554C82.8516 31.878 82.8216 31.7967 82.8008 31.7129Z" fill="#263238"/>
<path d="M46.86 14.1128C46.86 14.1128 46.1836 13.781 44.9328 13.2705C43.15 12.5855 41.2644 12.2058 39.3554 12.1473C36.5258 12.0503 33.7099 12.5821 31.1106 13.7044C27.9497 15.1019 25.2469 17.3624 23.3124 20.2263C21.365 23.082 20.3201 26.4568 20.3131 29.9134C20.3397 32.7464 20.7695 35.5612 21.5894 38.2731C22.2531 40.5959 22.9423 42.4466 23.4017 43.7356C23.6728 44.3904 23.8946 45.0644 24.0654 45.7522C23.7029 45.14 23.3994 44.4947 23.1592 43.825C22.636 42.5487 21.883 40.7363 21.1427 38.4007C20.234 35.6603 19.7394 32.7997 19.675 29.9134C19.641 26.3262 20.7103 22.8153 22.7381 19.8562C24.74 16.8876 27.5533 14.5573 30.8426 13.1428C33.523 12.0144 36.4267 11.5166 39.3299 11.6879C41.2803 11.7873 43.1963 12.2414 44.9839 13.028C45.4618 13.2485 45.9226 13.5044 46.3623 13.7938C46.5438 13.8735 46.7118 13.9812 46.86 14.1128Z" fill="#263238"/>
<path d="M47.4475 64.0542C47.6513 63.9308 47.8647 63.8241 48.0857 63.7351C48.7245 63.4468 49.3862 63.212 50.0639 63.0332C51.1397 62.7157 52.2493 62.5271 53.3695 62.4716C54.8933 62.3897 56.4177 62.6199 57.8493 63.148C61.1167 64.2967 64.1159 67.6278 65.5964 72.0821C66.3064 74.4725 66.3064 77.0176 65.5964 79.408C64.8092 82.0024 63.3981 84.3644 61.4868 86.2872L61.5633 85.9426C63.2608 90.6011 65.1115 95.6552 67.0259 100.926L67.1408 101.245L66.8217 101.36L63.899 102.33L57.5175 104.462L57.1984 104.564L57.0963 104.245C55.3478 98.9608 53.4333 94.0343 51.9911 89.1972L52.2719 89.4142C49.7768 89.2069 47.3978 88.2704 45.431 86.7212C43.6515 85.3506 42.1924 83.6084 41.1554 81.616C40.2197 79.8491 39.7539 77.8714 39.8025 75.8727C39.8616 73.8299 40.3716 71.8255 41.2962 70.0029C42.2207 68.1804 43.5368 66.5848 45.1502 65.3305C45.8144 64.7914 46.5596 64.3606 47.3582 64.0542C46.6372 64.4819 45.9386 64.9463 45.2651 65.4454C43.4928 66.9448 42.1349 68.874 41.3213 71.0483C40.6231 72.6879 40.2964 74.4617 40.3648 76.2425C40.4332 78.0233 40.895 79.7668 41.717 81.348C42.7366 83.2647 44.1606 84.937 45.8904 86.249C47.7667 87.7215 50.0349 88.6093 52.4123 88.8015H52.6293L52.6931 88.993C54.097 93.7408 56.0242 98.7056 57.7983 104.015L57.3771 103.811L63.7586 101.679L66.6685 100.697L66.4643 101.131C64.5627 95.8594 62.7248 90.7926 61.0401 86.1341V85.9426L61.1932 85.7895C63.0487 83.9464 64.4322 81.6829 65.2263 79.191C65.9033 76.9045 65.9033 74.4708 65.2263 72.1842C63.8352 67.8958 60.9635 64.6413 57.8493 63.4926C56.4709 62.9611 54.9992 62.7136 53.5227 62.7651C52.4202 62.7904 51.3242 62.9403 50.2554 63.2118C48.3537 63.6841 47.4603 64.118 47.4475 64.0542Z" fill="#263238"/>
</svg>
