<svg width="456" height="444" viewBox="0 0 456 444" fill="none" xmlns="http://www.w3.org/2000/svg">
<path d="M455.704 340.072H280.998V226.075H455.704V340.072ZM282.064 338.87H454.638V227.277H282.064V338.87Z" fill="#E0E0E0"/>
<path d="M419.663 286.86H304.396V290.67H419.663V286.86Z" fill="#F0F0F0"/>
<path d="M427.605 301.067H304.396V305.226H427.605V301.067Z" fill="#F0F0F0"/>
<path d="M427.605 315.443H304.396V319.602H427.605V315.443Z" fill="#F0F0F0"/>
<path d="M344.68 266.221H304.396V276.114H344.68V266.221Z" fill="#F0F0F0"/>
<path d="M455.172 226.676H281.563V244.826H455.172V226.676Z" fill="#E0E0E0"/>
<path d="M441.815 242.109C441.591 241.869 443.829 238.828 446.804 235.318C449.778 231.808 452.389 229.152 452.603 229.38C452.816 229.609 450.588 232.662 447.614 236.183C444.64 239.705 442.028 242.35 441.815 242.109Z" fill="white"/>
<path d="M452.624 242.109C452.411 242.35 449.81 239.705 446.825 236.183C443.84 232.662 441.612 229.621 441.836 229.38C442.06 229.14 444.65 231.784 447.635 235.318C450.62 238.852 452.827 241.869 452.624 242.109Z" fill="white"/>
<path d="M240.724 0.927979L67.1156 0.927979V113.736L240.724 113.736V0.927979Z" fill="#E6E6E6"/>
<path d="M205.226 61.124L89.9597 61.124V64.9344H205.226V61.124Z" fill="#F0F0F0"/>
<path d="M213.168 75.3318H89.9597V79.4907H213.168V75.3318Z" fill="#F0F0F0"/>
<path d="M213.168 89.7078H89.9597V93.8667H213.168V89.7078Z" fill="#F0F0F0"/>
<path d="M130.244 40.4858H89.9597V50.3783H130.244V40.4858Z" fill="#F0F0F0"/>
<path d="M240.724 0.927979L67.1156 0.927979V19.0782L240.724 19.0782V0.927979Z" fill="#E0E0E0"/>
<path d="M226.781 16.2774C226.557 16.0491 228.796 12.996 231.77 9.48613C234.744 5.97629 237.356 3.31988 237.569 3.56028C237.782 3.80068 235.554 6.84174 232.58 10.3516C229.606 13.8614 226.994 16.4938 226.781 16.2774Z" fill="white"/>
<path d="M237.569 16.2775C237.356 16.5179 234.755 13.8735 231.77 10.3516C228.785 6.82978 226.557 3.80074 226.781 3.56034C227.005 3.31994 229.595 5.96433 232.58 9.4862C235.565 13.0081 237.793 16.0491 237.569 16.2775Z" fill="white"/>
<path d="M174.973 210.485H0.298584L0.298584 96.4749L174.973 96.4749V210.485ZM1.36458 209.283H173.907V97.6769L1.36458 97.6769L1.36458 209.283Z" fill="#E0E0E0"/>
<path d="M138.943 157.272H23.6761V161.083H138.943V157.272Z" fill="#F0F0F0"/>
<path d="M146.884 171.48H23.6761V175.639H146.884V171.48Z" fill="#F0F0F0"/>
<path d="M146.884 185.856H23.6761V190.015H146.884V185.856Z" fill="#F0F0F0"/>
<path d="M63.9603 136.634H23.6761V146.526H63.9603V136.634Z" fill="#F0F0F0"/>
<path d="M174.441 97.0759L0.831787 97.0759L0.831787 115.226L174.441 115.226V97.0759Z" fill="#E0E0E0"/>
<path d="M376.565 236.604H171.573V443.541H376.565V236.604Z" fill="#E6E6E6"/>
<path d="M181.881 171.42H21.2987L21.2987 359.545H181.881V171.42Z" fill="#F0F0F0"/>
<path d="M181.881 171.42H21.2987V191.914H181.881V171.42Z" fill="#E0E0E0"/>
<path d="M34.5601 181.456C34.5309 182.2 34.3087 182.917 33.9213 183.519C33.5338 184.121 32.9981 184.581 32.3806 184.843C31.7631 185.105 31.0909 185.157 30.4476 184.992C29.8043 184.827 29.2182 184.452 28.7619 183.915C28.3056 183.378 27.9993 182.701 27.8809 181.969C27.7626 181.238 27.8375 180.483 28.0962 179.798C28.355 179.114 28.7862 178.53 29.3365 178.12C29.8868 177.71 30.5318 177.49 31.1916 177.49C32.1039 177.515 32.9703 177.946 33.6015 178.69C34.2326 179.433 34.5773 180.427 34.5601 181.456Z" fill="white"/>
<path d="M48.2369 181.456C48.2097 182.203 47.9884 182.924 47.6005 183.53C47.2126 184.136 46.6752 184.6 46.0552 184.864C45.4353 185.129 44.7601 185.181 44.1137 185.016C43.4673 184.851 42.8783 184.475 42.4199 183.935C41.9615 183.396 41.654 182.716 41.5356 181.98C41.4173 181.245 41.4933 180.487 41.7543 179.8C42.0152 179.113 42.4496 178.528 43.0033 178.117C43.557 177.706 44.2056 177.488 44.8684 177.49C45.7807 177.515 46.6471 177.946 47.2783 178.69C47.9094 179.433 48.2541 180.428 48.2369 181.456Z" fill="white"/>
<path d="M61.9133 181.456C61.8861 182.203 61.6648 182.924 61.2769 183.53C60.889 184.136 60.3516 184.6 59.7316 184.864C59.1116 185.129 58.4365 185.181 57.7901 185.016C57.1437 184.851 56.5546 184.475 56.0963 183.935C55.6379 183.396 55.3304 182.716 55.212 181.98C55.0937 181.245 55.1697 180.487 55.4307 179.8C55.6916 179.113 56.126 178.528 56.6797 178.117C57.2334 177.706 57.882 177.488 58.5448 177.49C59.4571 177.515 60.3235 177.946 60.9547 178.69C61.5858 179.433 61.9305 180.428 61.9133 181.456Z" fill="white"/>
<path d="M432.775 42.0725L227.783 42.0725V272.448H432.775V42.0725Z" fill="#F0F0F0"/>
<path d="M432.775 42.0725L227.783 42.0725V69.0574L432.775 69.0574V42.0725Z" fill="#E0E0E0"/>
<path d="M245.244 55.2944C245.206 56.2754 244.914 57.2224 244.403 58.0177C243.893 58.813 243.186 59.4217 242.371 59.7681C241.556 60.1145 240.669 60.1834 239.82 59.9663C238.971 59.7491 238.197 59.2555 237.594 58.5466C236.991 57.8378 236.587 56.945 236.43 55.979C236.274 55.0131 236.372 54.0166 236.713 53.1132C237.055 52.2099 237.624 51.4395 238.35 50.8977C239.077 50.3559 239.928 50.0666 240.799 50.0657C242.002 50.0972 243.146 50.6651 243.979 51.645C244.812 52.625 245.267 53.9371 245.244 55.2944Z" fill="white"/>
<path d="M261.948 51.7604C262.539 52.4841 262.928 53.3878 263.067 54.359C263.206 55.3303 263.088 56.326 262.728 57.2222C262.368 58.1185 261.783 58.8756 261.044 59.3991C260.306 59.9227 259.447 60.1897 258.575 60.1667C257.702 60.1438 256.855 59.832 256.139 59.2701C255.423 58.7082 254.87 57.9212 254.547 57.007C254.225 56.0928 254.149 55.092 254.327 54.1291C254.506 53.1662 254.932 52.2839 255.552 51.5921C256.421 50.6599 257.582 50.1542 258.781 50.1857C259.98 50.2173 261.119 50.7835 261.948 51.7604Z" fill="white"/>
<path d="M281.254 55.2944C281.216 56.2754 280.924 57.2224 280.413 58.0177C279.902 58.813 279.196 59.4217 278.381 59.7681C277.566 60.1145 276.679 60.1834 275.829 59.9663C274.98 59.7491 274.206 59.2555 273.604 58.5466C273.001 57.8378 272.596 56.945 272.44 55.979C272.283 55.0131 272.382 54.0166 272.723 53.1132C273.064 52.2099 273.634 51.4395 274.36 50.8977C275.086 50.3559 275.938 50.0666 276.808 50.0657C278.012 50.0972 279.155 50.6651 279.989 51.645C280.822 52.625 281.276 53.9371 281.254 55.2944Z" fill="white"/>
</svg>
