<svg width="184" height="357" viewBox="0 0 184 357" fill="none" xmlns="http://www.w3.org/2000/svg">
<path d="M62.4377 350.214V339.301L42.8721 339.161L42.7062 355.663L43.9187 355.753C49.3174 356.097 71.3845 356.608 75.0092 355.485C79.0423 354.234 62.4377 350.214 62.4377 350.214Z" fill="#FD7401"/>
<path d="M75.4684 354.464C75.4684 354.642 68.1425 354.795 59.1191 354.795C50.0957 354.795 42.7698 354.642 42.7698 354.464C42.7698 354.285 50.0957 354.132 59.1191 354.132C68.1425 354.132 75.4684 354.285 75.4684 354.464Z" fill="#263238"/>
<path d="M62.7822 352.447C62.6163 352.358 62.7822 351.783 63.1778 351.171C63.5735 350.558 64.1095 350.303 64.2372 350.43C64.3648 350.558 64.0968 351.043 63.7139 351.566C63.331 352.09 62.9481 352.536 62.7822 352.447Z" fill="#263238"/>
<path d="M64.0326 353.162C63.8539 353.162 63.9433 352.447 64.3262 351.771C64.7091 351.094 65.2196 350.686 65.36 350.788C65.5004 350.89 65.2706 351.464 64.9133 352.064C64.5559 352.664 64.1985 353.226 64.0326 353.162Z" fill="#263238"/>
<path d="M48.6667 354.413C48.5902 354.413 48.2966 354.183 47.8754 353.698C47.3613 353.074 46.7886 352.502 46.1652 351.988C45.5522 351.498 44.8219 351.177 44.0466 351.056C43.4467 350.979 43.0638 351.056 43.0255 350.979C42.9872 350.903 43.3574 350.635 44.0593 350.584C44.9857 350.564 45.8894 350.871 46.6119 351.452C47.2888 352.003 47.8597 352.674 48.2966 353.43C48.5902 353.991 48.7433 354.361 48.6667 354.413Z" fill="#263238"/>
<path d="M62.8459 350.392C62.9352 350.545 62.6034 350.928 62.0418 351.132C61.4802 351.337 60.9825 351.26 60.957 351.132C60.9315 351.005 61.3271 350.737 61.8121 350.558C62.2971 350.379 62.7438 350.239 62.8459 350.392Z" fill="#263238"/>
<path d="M62.5399 349.333C62.5399 349.524 62.0294 349.678 61.3657 349.69C60.702 349.703 60.1787 349.55 60.1915 349.371C60.2043 349.193 60.7276 349.027 61.3657 349.014C62.0038 349.001 62.5144 349.154 62.5399 349.333Z" fill="#263238"/>
<path d="M110.618 350.214V339.301L91.0524 339.161L90.8865 355.497L92.0989 355.587C97.4977 355.931 119.578 356.608 123.189 355.485C127.223 354.234 110.618 350.214 110.618 350.214Z" fill="#FD7401"/>
<path d="M123.648 354.489C123.648 354.668 116.335 354.821 107.299 354.821C98.2629 354.821 90.9625 354.668 90.9625 354.489C90.9625 354.311 98.2757 354.157 107.299 354.157C116.322 354.157 123.648 354.311 123.648 354.489Z" fill="#263238"/>
<path d="M110.962 352.447C110.809 352.358 110.962 351.783 111.358 351.171C111.754 350.558 112.29 350.303 112.417 350.43C112.545 350.558 112.277 351.043 111.894 351.566C111.511 352.09 111.128 352.536 110.962 352.447Z" fill="#263238"/>
<path d="M112.213 353.162C112.047 353.162 112.124 352.447 112.52 351.771C112.915 351.094 113.413 350.686 113.554 350.788C113.694 350.89 113.451 351.464 113.094 352.064C112.737 352.664 112.392 353.226 112.213 353.162Z" fill="#263238"/>
<path d="M96.8466 354.413C96.77 354.413 96.4892 354.183 96.0553 353.698C95.5411 353.074 94.9684 352.502 94.345 351.988C93.732 351.498 93.0017 351.177 92.2264 351.056C91.6393 350.979 91.2436 351.056 91.2053 350.979C91.167 350.903 91.5372 350.635 92.2391 350.584C93.1655 350.564 94.0692 350.871 94.7917 351.452C95.4721 352 96.0436 352.671 96.4764 353.43C96.77 353.991 96.9231 354.361 96.8466 354.413Z" fill="#263238"/>
<path d="M111.026 350.392C111.115 350.545 110.784 350.928 110.222 351.132C109.66 351.337 109.163 351.26 109.137 351.132C109.112 351.005 109.507 350.737 109.992 350.558C110.477 350.379 110.924 350.239 111.026 350.392Z" fill="#263238"/>
<path d="M110.745 349.333C110.745 349.524 110.235 349.678 109.571 349.69C108.907 349.703 108.397 349.55 108.41 349.371C108.422 349.193 108.933 349.027 109.571 349.014C110.209 349.001 110.745 349.154 110.745 349.333Z" fill="#263238"/>
<path d="M182.703 26.1626C182.193 25.6393 180.929 25.8945 180.929 25.8945C181.056 25.1597 181.056 24.4086 180.929 23.6738C180.699 22.9591 179.091 23.0994 179.091 23.0994C179.017 22.4976 179.017 21.889 179.091 21.2871C179.104 21.1537 179.075 21.0196 179.009 20.9031C178.943 20.7866 178.842 20.6934 178.721 20.6362C177.96 20.326 177.143 20.1782 176.322 20.2023C175.339 19.5003 179.321 13.9229 180.801 12.1361C182.282 10.3493 182.014 8.95813 180.699 8.95813C179.793 8.95813 175.147 14.3186 173.718 16.1181C172.289 17.9177 168.498 22.9208 168.37 18.926C168.243 14.9312 166.635 11.9191 165.626 11.4086C164.618 10.8981 163.546 12.0978 164.095 13.2082C164.577 14.4697 164.878 15.7932 164.988 17.1392C165.127 18.2113 165.079 19.2994 164.848 20.3554C164.425 22.3203 163.849 24.2492 163.125 26.1243H163.023C163.023 26.1243 135.174 52.8371 133.157 54.7388C131.358 56.449 95.1621 52.7095 87.9 51.9437C85.4322 51.5826 82.9403 51.4119 80.4464 51.4332C77.294 51.5736 76.7324 52.0203 73.5927 52.0586C65.6637 52.1466 57.753 52.8421 49.9302 54.1389C46.3881 54.7411 43.0793 56.3046 40.365 58.6588C37.6507 61.013 35.6351 64.0675 34.5381 67.489C27.2249 90.3346 10.6587 144.411 7.73594 174.787C5.52739 178.792 3.53356 182.912 1.76289 187.129C-0.29194 192.719 0.205814 192.91 0.895013 193.038C2.7584 193.383 4.87705 183.351 5.66835 185.776C6.45965 188.201 1.64803 197.735 3.60076 198.016C6.15335 198.373 8.18265 187.805 8.42515 186.963C8.66765 186.12 9.93118 186.389 9.70144 187.18C9.33132 188.303 5.74493 200.211 8.24647 200.594C9.62487 200.798 9.77802 198.284 9.77802 198.284C9.77802 198.284 12.3306 186.886 13.492 187.116C14.6535 187.346 13.4155 194.072 12.8284 196.318C12.2413 198.564 13.0581 199.7 14.2578 199.151C15.0746 198.769 17.0274 191.94 17.5634 189.72C18.0995 187.499 19.4396 181.347 21.2391 184.908C23.0387 188.469 25.77 190.536 26.8931 190.587C27.1462 190.558 27.3848 190.454 27.5781 190.288C27.7714 190.122 27.9107 189.902 27.9779 189.657C28.0452 189.411 28.0374 189.151 27.9555 188.909C27.8736 188.668 27.7214 188.457 27.5185 188.303C26.5525 187.36 25.7233 186.286 25.0553 185.112C24.4599 184.198 24.028 183.188 23.779 182.126C23.2647 180.009 22.9653 177.845 22.8856 175.668L22.6814 174.391C25.5403 160.237 33.7723 118.694 45.6546 92.1597L50.5301 102.191L52.6487 109.619L39.6561 141.693L95.0728 140.965L86.8024 109.134L96.8468 75.9508C107.708 76.1933 135.595 76.6017 140.241 74.4958C146.086 71.9432 176.322 33.7565 176.322 33.7565C178.293 32.2251 180.18 30.5891 181.976 28.8555C181.976 28.8555 183.813 27.3112 182.703 26.1626Z" fill="#FFBE9D"/>
<path d="M37.218 117.992C38.8262 112.504 47.0838 85.3698 47.0838 85.3698C47.0838 85.3698 51.1424 107.488 50.0703 110.155C49.0841 112.439 47.9191 114.641 46.586 116.741C37.218 130.997 38.4433 138.132 38.4433 138.132L95.0469 136.409C95.1745 128.496 90.4905 110.092 89.5205 107.156C88.5506 104.221 91.7796 94.6102 91.7796 94.6102C91.7796 94.6102 98.1611 88.1138 97.9313 84.7699C97.8101 81.7662 97.4387 78.7779 96.821 75.8359L131.281 77.1122L130.196 53.756L80.7014 48.804C78.9784 53.6666 63.3948 51.28 63.3948 51.28C46.5733 51.8415 45.5267 54.9302 38.5326 60.3672C31.5385 65.8042 19.9625 112.465 19.9625 112.465L37.218 117.992Z" fill="#FD7401"/>
<path d="M70.6825 112.466C69.7015 112.641 68.7025 112.692 67.7087 112.619C65.8581 112.619 63.3183 112.491 60.5232 112.21C57.7281 111.93 55.201 111.534 53.4015 111.177C52.4092 111.049 51.4362 110.8 50.5043 110.436C51.5021 110.437 52.4977 110.531 53.478 110.717C55.2904 110.947 57.8047 111.266 60.587 111.547C63.3693 111.827 65.8964 112.019 67.7215 112.147C68.7163 112.159 69.7078 112.266 70.6825 112.466Z" fill="#263238"/>
<path d="M74.5623 107.654C73.581 108.135 72.5434 108.49 71.4737 108.713C66.3817 110.051 61.1283 110.674 55.8646 110.564C54.7754 110.599 53.6861 110.496 52.6228 110.257C53.6978 110.122 54.7814 110.066 55.8646 110.092C57.8684 110.028 60.6252 109.887 63.6627 109.53C66.7003 109.173 69.4061 108.662 71.3205 108.254C72.3839 107.97 73.4677 107.769 74.5623 107.654Z" fill="#263238"/>
<path d="M93.605 86.1868C93.5792 87.1598 93.4465 88.1271 93.2093 89.0712C92.8775 90.8452 92.367 93.2702 91.7161 95.9249C91.0652 98.5796 90.4398 101.03 89.8782 102.689C89.6524 103.639 89.3184 104.56 88.8827 105.433C88.9538 104.463 89.1336 103.504 89.4187 102.574C89.9037 100.583 90.4525 98.286 91.0652 95.7717C91.6778 93.2574 92.2649 90.9601 92.7499 88.9691C92.9226 88.0108 93.2097 87.0767 93.605 86.1868Z" fill="#263238"/>
<path d="M37.8181 114.737C34.8654 114.281 31.9514 113.603 29.101 112.708C26.1883 112.027 23.3301 111.131 20.5498 110.028C23.501 110.491 26.4145 111.169 29.2669 112.057C32.1802 112.736 35.0386 113.632 37.8181 114.737Z" fill="#263238"/>
<path d="M97.4333 75.5551C96.9518 75.638 96.4597 75.638 95.9783 75.5551C94.6452 75.4184 93.3362 75.1051 92.0856 74.6234C89.9977 73.8388 88.0971 72.6262 86.5057 71.0634C84.9143 69.5006 83.6675 67.6223 82.8452 65.5489C81.9364 63.2682 81.5483 60.8133 81.7093 58.3634C81.7662 56.3427 82.3706 54.3753 83.4578 52.6711C84.2226 51.5231 85.3649 50.6787 86.6869 50.2845C87.0401 50.187 87.4053 50.1397 87.7717 50.1441C88.027 50.1441 88.1546 50.1441 88.1546 50.1441C88.1546 50.1441 87.6186 50.1441 86.7635 50.4887C85.5507 50.9367 84.5221 51.7766 83.8407 52.8753C82.105 55.6066 81.62 60.5969 83.4706 65.2554C84.3319 67.4519 85.6804 69.4243 87.4144 71.0242C88.8352 72.3334 90.4717 73.3869 92.2515 74.1384C93.9218 74.7985 95.6595 75.2736 97.4333 75.5551Z" fill="#263238"/>
<path d="M127.184 76.6527C126.865 72.7389 126.762 68.8104 126.878 64.8853C126.778 60.9635 126.897 57.0391 127.235 53.1306C127.555 57.0402 127.657 60.9644 127.541 64.8853C127.649 68.8114 127.529 72.7404 127.184 76.6527Z" fill="#263238"/>
<path d="M80.3695 50.2335C80.5099 47.3873 80.8034 44.1711 80.8034 44.1711C80.8034 44.1711 87.8486 43.3925 88.2698 36.1177C88.691 28.8428 88.2698 12.0595 88.2698 12.0595L75.5068 5.5249L61.34 16.6669L63.5224 53.0413L76.5151 53.8709C77.5082 53.8984 78.4717 53.5309 79.1943 52.849C79.9169 52.1671 80.3395 51.2265 80.3695 50.2335Z" fill="#FFBE9D"/>
<path d="M81.6334 30.3615C81.6334 30.3615 81.6334 30.5019 81.5185 30.6678C81.4236 30.7882 81.3007 30.8836 81.1607 30.9459C81.0206 31.0081 80.8674 31.0353 80.7145 31.0252C79.8976 31.0252 79.1063 30.0807 78.8256 28.9831C78.6921 28.451 78.6921 27.8943 78.8256 27.3622C78.8518 27.13 78.9355 26.908 79.0692 26.7163C79.2029 26.5246 79.3824 26.3694 79.5913 26.2646C79.763 26.1937 79.9557 26.1937 80.1274 26.2646C80.2546 26.3278 80.3577 26.4309 80.4209 26.5582C80.5103 26.7751 80.4209 26.9155 80.4209 26.9028C80.4209 26.89 80.4209 26.7751 80.2933 26.6475C80.2266 26.5561 80.1285 26.4925 80.0178 26.469C79.9071 26.4454 79.7916 26.4635 79.6934 26.5199C79.5369 26.6145 79.4068 26.7472 79.3153 26.9057C79.2238 27.0641 79.1739 27.2431 79.1701 27.426C79.0627 27.9008 79.0627 28.3935 79.1701 28.8682C79.4254 29.8637 80.1146 30.6678 80.7272 30.7444C80.8471 30.7606 80.969 30.752 81.0854 30.7191C81.2018 30.6862 81.3101 30.6296 81.4037 30.553C81.5568 30.4509 81.6079 30.3487 81.6334 30.3615Z" fill="#EB996E"/>
<path d="M92.6475 8.12854C91.6648 4.78465 88.1039 3.12547 84.8621 2.20653C79.9229 0.802611 74.588 0.189987 69.7636 1.96404C64.9392 3.73808 59.1448 6.85224 59.1448 12.1744C56.2987 11.9447 54.665 14.4334 53.5419 17.5221C52.8238 19.4038 52.3935 21.383 52.2656 23.393C51.9082 30.3616 49.9555 39.9848 45.4374 45.09C42.8848 47.9362 39.3495 49.9016 37.8945 53.4497C36.6182 56.5256 37.2819 60.1758 36.0949 63.29C35.0356 66.034 32.7 67.9867 30.9897 70.3734C29.2474 73.0809 28.222 76.1869 28.0099 79.3996C27.7978 82.6123 28.406 85.8262 29.7773 88.7393C31.1584 91.5776 33.103 94.1051 35.4925 96.1676C37.882 98.2302 40.6664 99.7847 43.6761 100.736C49.6377 102.55 55.9951 102.612 61.9909 100.915C66.4909 99.8391 70.6885 97.7577 74.2689 94.8272C77.9323 91.8356 80.4484 87.6691 81.3906 83.0342C82.2968 77.8269 80.8418 72.5303 79.757 67.3486C76.362 50.9737 77.332 50.1186 81.6203 34.918C81.7224 34.6499 81.7735 34.3691 81.8501 34.1011C81.9267 33.8331 81.965 33.7055 82.016 33.5013C82.1378 32.9004 82.2019 32.2892 82.2074 31.6762C81.5811 31.9091 80.9012 31.9584 80.2478 31.8182C79.5944 31.678 78.9946 31.3542 78.5189 30.8849C78.0421 30.3844 77.7097 29.7642 77.5569 29.0901C77.4041 28.416 77.4367 27.7131 77.6511 27.056C77.9522 26.3373 78.4009 25.6899 78.9681 25.1556C79.5354 24.6213 80.2085 24.2122 80.9439 23.9546C82.3606 23.3675 83.8794 23.0612 85.2705 22.4103C88.2188 21.0063 90.2608 18.0964 91.652 15.046C92.7958 12.9319 93.1487 10.4794 92.6475 8.12854Z" fill="#263238"/>
<path d="M82.1437 30.7061C82.4134 31.1045 82.6361 31.5328 82.8074 31.9823C83.1903 32.7864 83.7008 33.9223 84.2624 35.2369L84.3645 35.4794H84.0965L82.8202 35.5943C81.9395 35.5943 81.1993 35.7602 80.3314 35.7474C80.2558 35.7304 80.1858 35.6946 80.1278 35.6433C80.0698 35.592 80.0257 35.5268 79.9996 35.4539C79.9616 35.3378 79.9616 35.2126 79.9996 35.0965C80.0291 34.9245 80.0674 34.7541 80.1144 34.586L80.3442 33.6798C80.4596 33.0753 80.6393 32.4849 80.8802 31.9185C80.8565 32.5347 80.7666 33.1466 80.6122 33.7436L80.4335 34.6498C80.3697 34.9561 80.2548 35.4283 80.4335 35.3901C81.0717 35.3901 81.9778 35.2497 82.8202 35.1986L84.0965 35.0837L83.9306 35.3645C83.3818 34.0882 82.9223 32.8885 82.6543 32.0589C82.4191 31.6352 82.2471 31.1795 82.1437 30.7061Z" fill="#FD7401"/>
<path d="M38.4433 138.132L95.0469 136.409L119.679 232.565L115.149 342.862H85.2194L88.8824 234.913L66.994 167.972L70.3634 347.138L40.1152 347.585L36.9372 179.178C36.7968 174.494 35.2653 163.939 35.8396 159.293L38.4433 138.132Z" fill="#263238"/>
<path d="M74.5245 169.337C73.598 169.396 72.6679 169.34 71.755 169.171C70.0447 168.967 67.7091 168.61 65.1438 168.099C62.5784 167.589 60.2811 167.002 58.6219 166.529C57.735 166.334 56.877 166.026 56.0693 165.61C56.0693 165.419 60.23 166.415 65.3352 167.448C70.4404 168.482 74.5501 169.146 74.5245 169.337Z" fill="#455A64"/>
<path d="M114.843 336.813C114.843 336.991 108.065 337.144 99.7057 337.144C91.3459 337.144 84.556 336.991 84.556 336.813C84.556 336.634 91.3332 336.481 99.7057 336.481C108.078 336.481 114.843 336.621 114.843 336.813Z" fill="#455A64"/>
<path d="M70.0954 342.479C70.0954 342.671 63.5098 342.811 55.3925 342.811C47.2753 342.811 40.7024 342.671 40.7024 342.479C40.7024 342.288 47.2881 342.147 55.3925 342.147C63.497 342.147 70.0954 342.301 70.0954 342.479Z" fill="#455A64"/>
<path d="M66.1898 342.02C66.0111 342.02 65.2198 302.876 64.4158 254.594C63.6117 206.311 63.1395 167.142 63.3054 167.142C63.4713 167.142 64.2881 206.273 65.0794 254.581C65.8707 302.888 66.3813 342.02 66.1898 342.02Z" fill="#455A64"/>
<path d="M110.822 336.812C110.808 336.638 110.808 336.463 110.822 336.289V334.758C110.822 333.379 110.924 331.401 111.001 328.887C111.179 323.782 111.434 316.366 111.754 307.279C112.443 289.003 113.413 263.808 114.472 235.998C114.472 235.73 114.472 235.475 114.472 235.245V235.334C107.772 208.532 101.709 184.206 97.3059 166.606L92.2007 145.79C91.6136 143.352 91.1669 141.45 90.8479 140.123C90.6947 139.497 90.5926 139.012 90.5033 138.642C90.4536 138.476 90.4236 138.305 90.4139 138.132C90.4802 138.293 90.5315 138.459 90.5671 138.63C90.6692 138.987 90.7968 139.472 90.9755 140.085C91.3201 141.361 91.8179 143.301 92.456 145.726C93.7323 150.652 95.5319 157.748 97.7781 166.491C102.22 184.078 108.346 208.341 115.136 235.181V235.271C115.136 235.5 115.136 235.768 115.136 236.024C114 263.834 112.966 289.015 112.213 307.292C111.817 316.392 111.486 323.756 111.256 328.887C111.128 331.439 111.026 333.379 110.962 334.758C110.962 335.409 110.886 335.919 110.873 336.289C110.875 336.465 110.858 336.64 110.822 336.812Z" fill="#455A64"/>
<path d="M101.058 232.999C98.9085 233.706 96.6939 234.197 94.447 234.467C91.6902 234.939 89.3418 235.271 88.2825 235.322V235.066C88.6271 235.168 88.8058 235.232 88.8058 235.283C88.8058 235.334 88.5888 235.283 88.2315 235.283H87.4657L88.2315 235.054C89.227 234.76 91.5754 234.275 94.3322 233.777C96.5432 233.298 98.7961 233.037 101.058 232.999Z" fill="#455A64"/>
<path d="M100.535 236.662C98.5441 236.753 96.5491 236.663 94.5745 236.394C92.5809 236.353 90.5948 236.135 88.6398 235.743C92.6284 235.417 96.6435 235.727 100.535 236.662Z" fill="#455A64"/>
<path opacity="0.2" d="M38.2008 140.161C38.8712 141.022 39.7155 141.732 40.6788 142.244C41.642 142.757 42.7025 143.06 43.791 143.135C46.0707 143.405 48.3766 143.362 50.6447 143.007C65.2582 141.386 80.7397 139.893 95.0469 136.409C76.5279 137.443 56.9623 137.098 38.4433 138.132L38.2518 139.715" fill="black"/>
<g opacity="0.2">
<path d="M57.2812 166.261L67.7213 206.771L66.9938 167.971L57.2812 166.261Z" fill="black"/>
</g>
</svg>
