<svg width="154" height="336" viewBox="0 0 154 336" fill="none" xmlns="http://www.w3.org/2000/svg">
<path d="M52.4459 329.905V319.628L36.1042 319.495L35.9656 335.037L36.9783 335.121C41.4875 335.446 59.9186 335.927 62.946 334.869C66.3146 333.691 52.4459 329.905 52.4459 329.905Z" fill="#FD7401"/>
<path d="M63.3296 333.907C63.3296 334.076 57.2108 334.22 49.6741 334.22C42.1375 334.22 36.0187 334.076 36.0187 333.907C36.0187 333.739 42.1375 333.595 49.6741 333.595C57.2108 333.595 63.3296 333.739 63.3296 333.907Z" fill="#263238"/>
<path d="M52.7337 332.008C52.5951 331.924 52.7337 331.383 53.0641 330.806C53.3946 330.229 53.8423 329.989 53.9489 330.109C54.0555 330.229 53.8317 330.686 53.5119 331.179C53.1921 331.672 52.8723 332.092 52.7337 332.008Z" fill="#263238"/>
<path d="M53.7781 332.681C53.6288 332.681 53.7035 332.008 54.0233 331.371C54.3431 330.734 54.7695 330.349 54.8867 330.446C55.004 330.542 54.8121 331.083 54.5136 331.648C54.2151 332.213 53.9166 332.741 53.7781 332.681Z" fill="#263238"/>
<path d="M40.944 333.859C40.88 333.859 40.6348 333.643 40.283 333.186C39.8536 332.599 39.3753 332.06 38.8546 331.575C38.3426 331.114 37.7326 330.812 37.085 330.698C36.584 330.626 36.2642 330.698 36.2322 330.626C36.2003 330.554 36.5094 330.301 37.0957 330.253C37.8694 330.235 38.6243 330.524 39.2277 331.071C39.7931 331.59 40.2699 332.222 40.6348 332.934C40.88 333.463 41.0079 333.811 40.944 333.859Z" fill="#263238"/>
<path d="M52.7868 330.073C52.8614 330.217 52.5842 330.578 52.1152 330.77C51.6462 330.962 51.2304 330.89 51.2091 330.77C51.1878 330.65 51.5182 330.397 51.9233 330.229C52.3284 330.061 52.7015 329.929 52.7868 330.073Z" fill="#263238"/>
<path d="M52.5313 329.075C52.5313 329.256 52.1049 329.4 51.5506 329.412C50.9963 329.424 50.5592 329.28 50.5699 329.111C50.5806 328.943 51.0176 328.787 51.5506 328.775C52.0836 328.763 52.51 328.907 52.5313 329.075Z" fill="#263238"/>
<path d="M92.6875 329.905V319.628L76.3457 319.495L76.2072 334.881L77.2199 334.965C81.729 335.29 100.171 335.927 103.188 334.869C106.556 333.691 92.6875 329.905 92.6875 329.905Z" fill="#FD7401"/>
<path d="M103.571 333.931C103.571 334.1 97.4628 334.244 89.9156 334.244C82.3683 334.244 76.2708 334.1 76.2708 333.931C76.2708 333.763 82.3789 333.619 89.9156 333.619C97.4522 333.619 103.571 333.763 103.571 333.931Z" fill="#263238"/>
<path d="M92.9754 332.008C92.8474 331.924 92.9753 331.383 93.3058 330.806C93.6363 330.229 94.084 329.989 94.1906 330.109C94.2972 330.229 94.0733 330.686 93.7535 331.179C93.4337 331.672 93.1139 332.092 92.9754 332.008Z" fill="#263238"/>
<path d="M94.0202 332.681C93.8816 332.681 93.9455 332.008 94.276 331.371C94.6065 330.734 95.0222 330.349 95.1395 330.446C95.2567 330.542 95.0542 331.083 94.7557 331.648C94.4572 332.213 94.1694 332.741 94.0202 332.681Z" fill="#263238"/>
<path d="M81.1853 333.859C81.1213 333.859 80.8868 333.643 80.5244 333.186C80.0949 332.599 79.6166 332.06 79.0959 331.575C78.5839 331.114 77.9739 330.812 77.3264 330.698C76.836 330.626 76.5055 330.698 76.4736 330.626C76.4416 330.554 76.7507 330.301 77.337 330.253C78.1108 330.235 78.8656 330.524 79.469 331.071C80.0373 331.587 80.5146 332.219 80.8762 332.934C81.1213 333.463 81.2492 333.811 81.1853 333.859Z" fill="#263238"/>
<path d="M93.0285 330.073C93.1031 330.217 92.8259 330.578 92.3569 330.77C91.8879 330.962 91.4721 330.89 91.4508 330.77C91.4295 330.65 91.7599 330.397 92.165 330.229C92.5701 330.061 92.9432 329.929 93.0285 330.073Z" fill="#263238"/>
<path d="M92.7939 329.075C92.7939 329.256 92.3675 329.4 91.8132 329.412C91.2588 329.424 90.8324 329.28 90.8431 329.111C90.8538 328.943 91.2802 328.787 91.8132 328.775C92.3462 328.763 92.7939 328.907 92.7939 329.075Z" fill="#263238"/>
<path d="M152.895 24.7169C152.469 24.224 151.414 24.4644 151.414 24.4644C151.519 23.7724 151.519 23.065 151.414 22.373C151.222 21.6999 149.879 21.8321 149.879 21.8321C149.817 21.2653 149.817 20.692 149.879 20.1252C149.889 19.9996 149.865 19.8733 149.81 19.7636C149.755 19.6539 149.671 19.5661 149.569 19.5122C148.934 19.22 148.251 19.0808 147.565 19.1035C146.744 18.4424 150.07 13.1897 151.307 11.5069C152.544 9.82408 152.32 8.51392 151.222 8.51392C150.465 8.51392 146.585 13.5623 145.391 15.2571C144.197 16.952 141.031 21.6638 140.924 17.9015C140.818 14.1393 139.474 11.3026 138.632 10.8218C137.79 10.341 136.895 11.4708 137.353 12.5166C137.756 13.7046 138.007 14.9511 138.099 16.2187C138.215 17.2285 138.175 18.2532 137.982 19.2478C137.629 21.0983 137.147 22.9148 136.543 24.6808H136.458C136.458 24.6808 113.197 49.8387 111.513 51.6296C110.01 53.2403 79.7784 49.7185 73.7128 48.9973C71.6517 48.6572 69.5704 48.4964 67.4874 48.5165C64.8544 48.6487 64.3853 49.0694 61.763 49.1054C55.1404 49.1884 48.5332 49.8434 41.9993 51.0647C39.0408 51.6319 36.2772 53.1044 34.0102 55.3215C31.7431 57.5387 30.0596 60.4153 29.1434 63.6376C23.0352 85.1534 9.19851 136.082 6.75737 164.69C4.91271 168.462 3.24741 172.342 1.76849 176.313C0.0522335 181.578 0.467973 181.758 1.04361 181.878C2.59997 182.203 4.36953 172.755 5.03045 175.039C5.69137 177.323 1.67256 186.302 3.30354 186.566C5.43554 186.903 7.13047 176.95 7.33301 176.157C7.53555 175.364 8.59089 175.616 8.39901 176.361C8.08987 177.419 5.09442 188.634 7.18378 188.994C8.33506 189.186 8.46297 186.819 8.46297 186.819C8.46297 186.819 10.595 176.085 11.565 176.301C12.5351 176.517 11.5011 182.852 11.0107 184.967C10.5204 187.083 11.2026 188.153 12.2046 187.636C12.8869 187.275 14.5179 180.845 14.9656 178.753C15.4133 176.662 16.5326 170.868 18.0356 174.222C19.5387 177.575 21.82 179.522 22.758 179.57C22.9694 179.543 23.1687 179.445 23.3301 179.289C23.4916 179.132 23.6079 178.925 23.6641 178.694C23.7203 178.462 23.7138 178.217 23.6454 177.99C23.577 177.763 23.4499 177.564 23.2804 177.419C22.4735 176.531 21.781 175.519 21.223 174.414C20.7257 173.553 20.365 172.601 20.157 171.601C19.7274 169.607 19.4774 167.57 19.4108 165.519L19.2402 164.317C21.6281 150.987 28.5038 111.862 38.4282 86.8723L42.5004 96.32L44.2699 103.316L33.418 133.522L79.7038 132.837L72.7961 102.859L81.1855 71.6069C90.2572 71.8353 113.549 72.2199 117.429 70.2366C122.312 67.8326 147.565 31.8688 147.565 31.8688C149.211 30.4265 150.788 28.8857 152.288 27.2531C152.288 27.2531 153.823 25.7987 152.895 24.7169Z" fill="#FFBE9D"/>
<path d="M31.3817 111.201C32.7248 106.032 39.6219 80.4776 39.6219 80.4776C39.6219 80.4776 43.0118 101.308 42.1163 103.82C41.2926 105.971 40.3195 108.045 39.2061 110.023C31.3817 123.449 32.4051 130.168 32.4051 130.168L79.6821 128.546C79.7887 121.093 75.8765 103.76 75.0664 100.996C74.2562 98.2311 76.9532 89.1801 76.9532 89.1801C76.9532 89.1801 82.2832 83.0619 82.0913 79.9127C81.9901 77.0838 81.6798 74.2694 81.1639 71.4987L109.946 72.7007L109.04 50.704L67.7003 46.0403C66.2612 50.6199 53.2453 48.3722 53.2453 48.3722C39.1955 48.901 38.3213 51.8099 32.4797 56.9304C26.638 62.0509 16.9694 105.996 16.9694 105.996L31.3817 111.201Z" fill="#FD7401"/>
<path d="M59.3322 105.996C58.5129 106.161 57.6785 106.21 56.8484 106.14C55.3027 106.14 53.1814 106.02 50.8469 105.756C48.5123 105.491 46.4016 105.119 44.8986 104.782C44.0698 104.662 43.2572 104.428 42.4788 104.085C43.3122 104.085 44.1438 104.174 44.9625 104.349C46.4763 104.566 48.5763 104.866 50.9002 105.131C53.224 105.395 55.3347 105.575 56.8591 105.696C57.69 105.707 58.5181 105.808 59.3322 105.996Z" fill="#263238"/>
<path d="M62.5728 101.465C61.7532 101.917 60.8866 102.252 59.9931 102.462C55.7401 103.722 51.3523 104.309 46.9559 104.205C46.0462 104.239 45.1364 104.142 44.2483 103.917C45.1461 103.789 46.0512 103.737 46.9559 103.76C48.6295 103.7 50.9321 103.568 53.4692 103.232C56.0063 102.895 58.2662 102.414 59.8652 102.03C60.7533 101.762 61.6586 101.573 62.5728 101.465Z" fill="#263238"/>
<path d="M78.4778 81.2471C78.4562 82.1635 78.3454 83.0745 78.1473 83.9636C77.8701 85.6344 77.4438 87.9182 76.9001 90.4183C76.3564 92.9185 75.8341 95.2263 75.365 96.7889C75.1765 97.6834 74.8975 98.5505 74.5336 99.3732C74.593 98.4597 74.7431 97.5565 74.9813 96.6807C75.3864 94.8056 75.8448 92.642 76.3564 90.2741C76.8681 87.9061 77.3585 85.7425 77.7635 83.8674C77.9078 82.9649 78.1476 82.0852 78.4778 81.2471Z" fill="#263238"/>
<path d="M31.8828 108.136C29.4167 107.706 26.9828 107.067 24.602 106.224C22.1693 105.583 19.782 104.739 17.4598 103.7C19.9248 104.137 22.3582 104.775 24.7406 105.611C27.1739 106.25 29.5613 107.094 31.8828 108.136Z" fill="#263238"/>
<path d="M81.6752 71.2343C81.2731 71.3124 80.8621 71.3124 80.46 71.2343C79.3465 71.1056 78.2532 70.8105 77.2087 70.3569C75.4648 69.618 73.8773 68.4759 72.5482 67.0041C71.219 65.5323 70.1776 63.7633 69.4908 61.8107C68.7318 59.6627 68.4076 57.3506 68.5421 55.0434C68.5896 53.1403 69.0944 51.2875 70.0025 49.6825C70.6413 48.6012 71.5954 47.806 72.6995 47.4347C72.9945 47.3429 73.2996 47.2984 73.6056 47.3025C73.8188 47.3025 73.9254 47.3025 73.9254 47.3025C73.9254 47.3025 73.4777 47.3025 72.7635 47.627C71.7505 48.049 70.8914 48.84 70.3223 49.8748C68.8726 52.4471 68.4675 57.1469 70.0132 61.5342C70.7326 63.6028 71.8588 65.4605 73.3071 66.9672C74.4938 68.2001 75.8607 69.1924 77.3473 69.9001C78.7424 70.5218 80.1937 70.9692 81.6752 71.2343Z" fill="#263238"/>
<path d="M106.524 72.2681C106.257 68.5821 106.172 64.8823 106.268 61.1856C106.185 57.4921 106.284 53.7962 106.567 50.1152C106.834 53.7972 106.919 57.493 106.823 61.1856C106.912 64.8832 106.813 68.5835 106.524 72.2681Z" fill="#263238"/>
<path d="M67.4231 47.3866C67.5404 44.7061 67.7856 41.6771 67.7856 41.6771C67.7856 41.6771 73.6699 40.9439 74.0217 34.0925C74.3734 27.2411 74.0217 11.4348 74.0217 11.4348L63.3617 5.28052L51.5291 15.774L53.3519 50.031L64.2038 50.8123C65.0333 50.8382 65.838 50.4921 66.4415 49.8499C67.045 49.2077 67.398 48.3218 67.4231 47.3866Z" fill="#FFBE9D"/>
<path d="M68.4788 28.6714C68.4788 28.6714 68.4788 28.8037 68.3829 28.9599C68.3036 29.0733 68.201 29.1631 68.084 29.2218C67.967 29.2804 67.8391 29.3061 67.7113 29.2965C67.0291 29.2965 66.3682 28.407 66.1336 27.3733C66.0222 26.8722 66.0222 26.3478 66.1336 25.8467C66.1555 25.628 66.2255 25.4189 66.3372 25.2384C66.4489 25.0579 66.5987 24.9117 66.7732 24.813C66.9166 24.7462 67.0776 24.7462 67.221 24.813C67.3273 24.8725 67.4134 24.9696 67.4661 25.0895C67.5408 25.2938 67.4661 25.426 67.4661 25.414C67.4661 25.402 67.4661 25.2938 67.3595 25.1736C67.3038 25.0875 67.2219 25.0277 67.1294 25.0055C67.037 24.9833 66.9405 25.0004 66.8585 25.0534C66.7278 25.1426 66.6191 25.2676 66.5427 25.4168C66.4663 25.566 66.4246 25.7346 66.4215 25.9068C66.3317 26.3539 66.3317 26.818 66.4215 27.2651C66.6347 28.2027 67.2103 28.9599 67.722 29.032C67.8221 29.0473 67.9239 29.0392 68.0211 29.0082C68.1183 28.9772 68.2088 28.9239 68.287 28.8517C68.4149 28.7556 68.4575 28.6594 68.4788 28.6714Z" fill="#EB996E"/>
<path d="M77.6782 7.73264C76.8574 4.5834 73.8832 3.0208 71.1756 2.15536C67.0502 0.833165 62.5943 0.256202 58.5648 1.92698C54.5353 3.59776 49.6957 6.53064 49.6957 11.543C47.3185 11.3266 45.954 13.6705 45.0159 16.5794C44.4162 18.3515 44.0568 20.2156 43.9499 22.1086C43.6514 28.6715 42.0205 37.7346 38.2468 42.5426C36.1148 45.223 33.162 47.0741 31.9468 50.4157C30.8808 53.3125 31.4351 56.7502 30.4437 59.6831C29.5589 62.2674 27.6081 64.1065 26.1797 66.3542C24.7244 68.9041 23.868 71.8293 23.6908 74.855C23.5137 77.8807 24.0217 80.9075 25.167 83.651C26.3206 86.3241 27.9448 88.7044 29.9406 90.6469C31.9363 92.5895 34.262 94.0535 36.7757 94.9498C41.7551 96.6579 47.0649 96.7163 52.0729 95.118C55.8313 94.1047 59.3374 92.1445 62.3278 89.3845C65.3876 86.5671 67.4891 82.6431 68.2761 78.278C69.0329 73.3739 67.8177 68.3856 66.9116 63.5055C64.076 48.0838 64.8862 47.2785 68.4679 32.9626C68.5532 32.7102 68.5959 32.4458 68.6598 32.1934C68.7238 31.9409 68.7558 31.8207 68.7984 31.6284C68.9001 31.0625 68.9537 30.4869 68.9583 29.9095C68.4351 30.1289 67.8673 30.1753 67.3216 30.0433C66.7758 29.9113 66.2749 29.6063 65.8776 29.1643C65.4793 28.693 65.2017 28.1089 65.074 27.474C64.9464 26.8392 64.9736 26.1772 65.1527 25.5583C65.4042 24.8815 65.779 24.2717 66.2527 23.7685C66.7265 23.2654 67.2887 22.88 67.9029 22.6375C69.0862 22.0845 70.3547 21.796 71.5167 21.183C73.9791 19.8608 75.6847 17.1203 76.8467 14.2475C77.802 12.2564 78.0968 9.94666 77.6782 7.73264Z" fill="#263238"/>
<path d="M68.905 28.9961C69.1303 29.3713 69.3163 29.7747 69.4593 30.1981C69.7791 30.9554 70.2055 32.0251 70.6746 33.2632L70.7599 33.4916H70.536L69.47 33.5998C68.7344 33.5998 68.1162 33.756 67.3913 33.744C67.3282 33.728 67.2697 33.6943 67.2212 33.6459C67.1728 33.5976 67.1359 33.5362 67.1141 33.4675C67.0824 33.3582 67.0824 33.2403 67.1141 33.131C67.1388 32.969 67.1708 32.8085 67.2101 32.6502L67.4019 31.7968C67.4984 31.2274 67.6485 30.6714 67.8497 30.138C67.8298 30.7183 67.7548 31.2946 67.6258 31.8569L67.4766 32.7103C67.4233 32.9987 67.3273 33.4435 67.4766 33.4074C68.0096 33.4074 68.7664 33.2752 69.47 33.2271L70.536 33.1189L70.3974 33.3834C69.939 32.1814 69.5553 31.0515 69.3314 30.2702C69.135 29.8712 68.9914 29.4419 68.905 28.9961Z" fill="#FD7401"/>
<path d="M32.405 130.168L79.6821 128.546L100.256 219.104L96.4716 322.981H71.4739L74.5333 221.316L56.2514 158.271L59.0657 327.008L33.8015 327.429L31.1471 168.825C31.0298 164.413 29.7506 154.473 30.2303 150.098L32.405 130.168Z" fill="#263238"/>
<path d="M62.5412 159.557C61.7673 159.612 60.9905 159.56 60.228 159.401C58.7995 159.209 56.8488 158.872 54.7061 158.391C52.5634 157.91 50.6446 157.357 49.2588 156.913C48.518 156.729 47.8014 156.438 47.1268 156.047C47.1268 155.867 50.602 156.805 54.866 157.778C59.13 158.752 62.5625 159.377 62.5412 159.557Z" fill="#455A64"/>
<path d="M96.2161 317.284C96.2161 317.452 90.5557 317.596 83.5734 317.596C76.5911 317.596 70.9199 317.452 70.9199 317.284C70.9199 317.115 76.5804 316.971 83.5734 316.971C90.5663 316.971 96.2161 317.103 96.2161 317.284Z" fill="#455A64"/>
<path d="M58.842 322.621C58.842 322.801 53.3414 322.933 46.5617 322.933C39.7819 322.933 34.292 322.801 34.292 322.621C34.292 322.44 39.7926 322.308 46.5617 322.308C53.3308 322.308 58.842 322.452 58.842 322.621Z" fill="#455A64"/>
<path d="M55.5798 322.188C55.4306 322.188 54.7697 285.322 54.0981 239.851C53.4265 194.379 53.0321 157.49 53.1707 157.49C53.3093 157.49 53.9915 194.343 54.6524 239.839C55.3133 285.334 55.7397 322.188 55.5798 322.188Z" fill="#455A64"/>
<path d="M92.858 317.284C92.8463 317.12 92.8463 316.955 92.858 316.791V315.349C92.858 314.05 92.9432 312.187 93.0072 309.819C93.1564 305.011 93.3696 298.028 93.6361 289.47C94.2118 272.257 95.0219 248.529 95.9067 222.338C95.9067 222.085 95.9067 221.845 95.9067 221.629V221.713C90.3102 196.471 85.2467 173.561 81.569 156.985L77.305 137.38C76.8147 135.085 76.4416 133.294 76.1751 132.044C76.0471 131.455 75.9619 130.998 75.8872 130.649C75.8457 130.493 75.8207 130.331 75.8126 130.168C75.868 130.32 75.9108 130.477 75.9405 130.637C76.0258 130.974 76.1324 131.431 76.2816 132.008C76.5695 133.21 76.9852 135.037 77.5182 137.32C78.5842 141.96 80.0873 148.643 81.9634 156.877C85.6731 173.44 90.7899 196.29 96.461 221.569V221.653C96.461 221.869 96.461 222.121 96.461 222.362C95.5123 248.553 94.6488 272.269 94.0199 289.482C93.6894 298.052 93.4123 304.987 93.2204 309.819C93.1138 312.223 93.0285 314.05 92.9752 315.349C92.9752 315.962 92.9113 316.442 92.9006 316.791C92.9022 316.956 92.8879 317.122 92.858 317.284Z" fill="#455A64"/>
<path d="M84.703 219.513C82.9075 220.179 81.0578 220.642 79.1811 220.895C76.8786 221.34 74.9171 221.653 74.0323 221.701V221.46C74.3202 221.556 74.4694 221.616 74.4694 221.665C74.4694 221.713 74.2882 221.665 73.9897 221.665H73.3501L73.9897 221.448C74.8212 221.172 76.7826 220.715 79.0852 220.246C80.9319 219.794 82.8136 219.549 84.703 219.513Z" fill="#455A64"/>
<path d="M84.2658 222.963C82.6031 223.048 80.9368 222.964 79.2876 222.71C77.6225 222.672 75.9636 222.467 74.3307 222.097C77.6621 221.791 81.0156 222.083 84.2658 222.963Z" fill="#455A64"/>
<path opacity="0.2" d="M32.2025 132.08C32.7624 132.89 33.4677 133.559 34.2722 134.041C35.0767 134.524 35.9624 134.81 36.8716 134.88C38.7757 135.135 40.7017 135.094 42.596 134.76C54.8017 133.233 67.7323 131.827 79.6821 128.546C64.2145 129.519 47.8727 129.195 32.4051 130.168L32.2451 131.659" fill="black"/>
<g opacity="0.2">
<path d="M48.1392 156.66L56.859 194.812L56.2514 158.271L48.1392 156.66Z" fill="black"/>
</g>
</svg>
