<svg width="90" height="173" viewBox="0 0 90 173" fill="none" xmlns="http://www.w3.org/2000/svg">
<path d="M20.3681 128.513C3.89844 115.544 0.167439 91.4677 0.817699 69.8197C0.924299 66.2137 0.572532 62.3913 2.09691 59.2301C3.62129 56.0688 7.18172 53.8932 10.0493 55.4077C12.4264 56.6698 13.4605 59.795 14.793 62.3793C16.5709 65.8214 19.1764 68.6259 22.3083 70.4688C24.3443 71.6708 26.8708 72.392 28.8855 71.1419C31.6571 69.423 31.9769 65.1319 31.9556 61.5259C31.9556 54.8187 31.92 48.1196 31.849 41.4284C31.6574 37.8355 31.9814 34.2312 32.8084 30.7547C33.7998 27.341 36.0064 24.1797 39.0231 23.2181C42.0399 22.2565 45.8029 24.2398 46.4851 27.7497C46.6026 29.2363 46.6346 30.7299 46.5811 32.2211C46.6664 33.7236 47.2847 35.3703 48.5319 35.8271C49.7791 36.2839 51.0796 35.2381 52.039 34.1804C55.3223 30.5744 57.5609 25.8745 59.6396 21.2348C61.7183 16.5951 63.7543 11.8232 66.7391 7.86858C69.7239 3.914 73.8494 0.776782 78.4651 0.476282C83.0809 0.175782 87.8886 3.3731 89.0399 8.4215C90.1912 13.4699 87.5795 18.6265 84.7759 22.7253C80.5453 28.8095 75.5583 34.1736 69.9691 38.6518C68.8781 39.3235 68.0074 40.3727 67.4854 41.6448C66.7924 44.0488 68.8072 46.4528 70.9072 47.2101C73.2844 48.0995 75.8641 47.823 78.3692 48.1596C80.8743 48.4962 83.5393 49.7222 84.488 52.3666C85.7886 56.0447 83.0596 59.8911 80.384 62.4153C75.0113 67.4638 68.9107 71.4358 62.3472 74.1589C60.002 75.1205 57.5396 75.9739 55.6421 77.825C53.7446 79.6761 52.6146 82.9095 53.7553 85.4457C54.8959 87.9819 57.8274 88.7872 60.2899 88.2704C62.7523 87.7535 64.9376 86.263 67.2828 85.2654C71.6641 83.4023 77.3139 83.7388 80.0748 88.0059C80.9302 89.4758 81.4716 91.1494 81.6565 92.895C81.8415 94.6407 81.665 96.4109 81.1408 98.0667C80.0739 101.362 78.4319 104.382 76.3118 106.949C69.33 116.355 60.2584 123.502 50.0243 127.66C39.8653 131.627 30.4525 132.708 20.3575 128.537" fill="#FD7401"/>
<path d="M84.3494 3.44531C84.3494 3.44531 84.2534 3.56551 84.0402 3.78187L83.0915 4.73144C82.26 5.57284 81.0341 6.79889 79.4884 8.42159C75.1059 13.0098 71.0365 17.9641 67.3147 23.2423C64.9375 26.5718 62.475 30.3461 59.8527 34.4449C57.2303 38.5437 54.5227 42.9671 51.8364 47.6669C48.9724 52.623 46.3497 57.7511 43.9799 63.0285C42.7434 65.781 41.6561 68.6538 40.5368 71.5867L37.2322 80.5416C32.8762 91.8212 29.0825 103.366 25.8686 115.123C23.2798 124.742 21.4954 134.614 20.5386 144.608C19.9186 151.353 19.8188 158.146 20.2401 164.91C20.4107 167.314 20.5706 169.153 20.7198 170.403C20.7838 171.004 20.8264 171.485 20.8691 171.833V172.326C20.8232 172.17 20.7911 172.009 20.7731 171.846C20.7198 171.497 20.6559 171.028 20.5706 170.427C20.3787 169.225 20.1762 167.326 19.9843 164.922C19.47 158.145 19.5057 151.33 20.0909 144.56C20.9883 134.523 22.7338 124.606 25.3036 114.943C28.4905 103.153 32.2739 91.5788 36.6352 80.2771L40.0251 71.3583C41.1444 68.4375 42.2424 65.5406 43.4896 62.776C45.8758 57.4827 48.52 52.3423 51.41 47.3784C54.1389 42.5704 56.8892 38.2192 59.4796 34.1564C62.07 30.0937 64.5751 26.2953 66.9416 22.9778C70.7012 17.7136 74.8254 12.794 79.2752 8.26533C80.8529 6.66667 82.1108 5.46467 82.9636 4.65933L83.9549 3.75783C84.0764 3.63852 84.2086 3.53379 84.3494 3.44531Z" fill="#263238"/>
<path d="M43.6285 62.7518C43.4781 62.2566 43.3745 61.745 43.3193 61.2253C43.1487 60.2276 42.9569 58.8213 42.733 56.9942C42.2746 53.3882 41.8056 48.448 41.3046 42.9789C40.8036 37.5098 40.2386 32.5576 39.7695 28.9876C39.5244 27.2087 39.3112 25.7783 39.1619 24.7806C39.0454 24.27 38.9846 23.7453 38.9807 23.218C39.1643 23.6996 39.2966 24.2039 39.3751 24.7205C39.6096 25.7062 39.8761 27.1245 40.1746 28.9155C40.7822 32.5215 41.3792 37.4256 41.8802 42.9068C42.3812 48.3879 42.8076 53.1959 43.1381 56.9341C43.298 58.6169 43.4366 60.0473 43.5432 61.1892C43.626 61.7045 43.6546 62.229 43.6285 62.7518Z" fill="#263238"/>
<path d="M84.648 54.1215C84.1292 54.2488 83.6011 54.3212 83.0703 54.3378C82.0043 54.446 80.4906 54.5902 78.6145 54.8306C74.8621 55.2874 69.7027 56.1288 64.0422 57.3308C58.3818 58.5328 53.297 59.891 49.6406 60.9368C47.8177 61.4657 46.3466 61.9465 45.3766 62.271C44.8586 62.4785 44.3226 62.6236 43.7776 62.7037C44.2702 62.4244 44.7839 62.1951 45.3126 62.0186C46.3146 61.6219 47.7644 61.069 49.5766 60.48C53.2117 59.278 58.2965 57.8476 63.9783 56.6216C68.7913 55.5839 73.6478 54.8216 78.5292 54.3378C80.416 54.1575 81.9404 54.0854 83.0064 54.0613C83.554 54.0193 84.104 54.0395 84.648 54.1215Z" fill="#263238"/>
<path d="M25.8262 114.101C25.7125 113.927 25.6194 113.738 25.549 113.537L24.8455 111.866C24.2379 110.411 23.417 108.26 22.4363 105.627C20.4535 100.339 17.9271 92.9342 15.2408 84.7125C12.5545 76.4909 10.0814 69.0866 8.20519 63.7377C7.28843 61.1413 6.5316 59.0138 5.96662 57.4272L5.36963 55.7083C5.28689 55.5101 5.22949 55.2996 5.1991 55.0833C5.31275 55.2573 5.40589 55.4472 5.47623 55.6482L6.1798 57.319C6.77676 58.7734 7.60825 60.925 8.58897 63.5574C10.5717 68.8462 13.0981 76.2505 15.7845 84.4722C18.4708 92.6939 20.9439 100.098 22.8201 105.447C23.7368 108.043 24.4937 110.171 25.048 111.758C25.2932 112.443 25.4957 112.96 25.6556 113.476C25.7384 113.675 25.7958 113.885 25.8262 114.101Z" fill="#263238"/>
<path d="M80.2775 94.3044C80.1068 94.4149 79.924 94.4998 79.7338 94.5569L78.1562 95.1579L72.3251 97.2854C67.4002 99.0884 60.5991 101.661 53.1371 104.497C45.6751 107.334 38.842 109.858 33.8851 111.541C31.412 112.395 29.3973 113.044 28.0008 113.476L26.3912 113.945C26.204 114.012 26.0111 114.056 25.8156 114.077C25.9863 113.967 26.169 113.882 26.3592 113.825L27.9369 113.224L33.7679 111.096C38.6928 109.293 45.4939 106.721 52.9559 103.884C60.4179 101.048 67.2403 98.5234 72.1972 96.8406C74.681 95.9872 76.6851 95.3382 78.0922 94.9054L79.7018 94.4366C79.889 94.3696 80.082 94.3253 80.2775 94.3044Z" fill="#263238"/>
</svg>
