<svg width="56" height="72" viewBox="0 0 56 72" fill="none" xmlns="http://www.w3.org/2000/svg">
<path d="M27.5535 0.753256L27.0524 0.753256L25.6027 0.873464C24.8181 0.926614 24.0379 1.04312 23.2681 1.22205C22.7695 1.301 22.275 1.40931 21.7864 1.54658L20.1341 2.06345C17.3218 3.03633 14.6684 4.51807 12.2777 6.45074C9.11899 9.03598 6.48145 12.3459 4.53852 16.1629C3.39655 18.3632 2.48777 20.7071 1.83088 23.1465C1.14063 25.7978 0.743217 28.535 0.647625 31.2961C0.584094 32.7465 0.605458 34.2001 0.711583 35.6473C0.711583 36.3806 0.892803 37.1138 0.978083 37.859C1.04981 38.6103 1.17457 39.3538 1.35118 40.0827C2.30975 44.906 4.25472 49.41 7.03094 53.2354C9.80716 57.0607 13.3378 60.1016 17.3412 62.1154C20.2387 63.5251 23.3443 64.3119 26.4981 64.4352C29.7555 64.6373 33.0162 64.1103 36.0921 62.8846L37.0302 62.488H37.1581L37.2647 62.5601L50.707 70.2529L50.3126 70.6376C48.8735 65.6132 47.4877 60.7451 46.1445 56.0693V55.889L46.2618 55.7568C49.5227 52.0533 51.9434 47.5178 53.3187 42.5348C54.5643 37.9792 54.9279 33.1751 54.3847 28.4473C53.9015 24.2458 52.7035 20.1889 50.8562 16.4995C49.2639 13.3302 47.2098 10.4858 44.78 8.08546C42.7754 6.1856 40.5566 4.59315 38.1815 3.34958C36.3843 2.47558 34.5127 1.81104 32.5956 1.36629L30.4636 0.969626L28.9179 0.837405L27.9799 0.765288H27.6601C27.7663 0.75199 27.8736 0.75199 27.9799 0.765288H28.9286L30.4743 0.837405L32.6063 1.18598C34.5472 1.59817 36.4444 2.23874 38.2668 3.09717C40.6827 4.32596 42.9415 5.91475 44.9826 7.82102C47.457 10.2107 49.5547 13.0556 51.1867 16.235C53.0864 19.9641 54.3212 24.0759 54.8218 28.3392C55.41 33.1399 55.0718 38.0273 53.8304 42.667C52.4461 47.7537 49.9879 52.3857 46.6668 56.1655L46.7308 55.853C48.074 60.5287 49.4704 65.3968 50.9202 70.4092L51.1227 71.1424L50.5151 70.7938L37.0728 63.113H37.3074L36.348 63.5097C33.2128 64.7536 29.8918 65.2927 26.5727 65.0963C23.351 64.958 20.1804 64.1427 17.2239 62.6923C11.5845 59.969 6.89248 55.2357 3.86694 49.2179C2.47465 46.4386 1.45787 43.4407 0.85016 40.3231C0.683744 39.5754 0.559134 38.8167 0.477061 38.0513C0.391781 37.2941 0.253204 36.5488 0.221224 35.8036C-0.0672807 31.5267 0.333611 27.2262 1.40448 23.1105C2.07773 20.6375 3.01183 18.2646 4.18675 16.0427C6.17602 12.191 8.86851 8.86006 12.0858 6.27045C14.5159 4.33283 17.2139 2.8625 20.0701 1.9192L21.7438 1.43841C22.2364 1.30957 22.7345 1.20927 23.2362 1.13791C24.014 0.975511 24.8014 0.879074 25.592 0.849419L27.0524 0.789333C27.2185 0.764114 27.3859 0.752048 27.5535 0.753256Z" fill="#FD7401"/>
<path d="M33.6294 28.7839H31.6573L27.3933 22.0287V17.5933C27.3933 17.5933 24.3446 17.377 24.707 23.1826C25.0694 28.9883 24.707 27.5098 24.707 27.5098C24.707 27.5098 18.2364 27.5098 17.7034 28.1709C17.1704 28.832 17.1384 35.8757 17.0638 39.8063C17.0229 40.7538 17.264 41.6895 17.7488 42.4648C18.2336 43.2401 18.9342 43.8105 19.7394 44.0854C19.9651 44.1559 20.1981 44.1923 20.4323 44.1936C22.0527 44.1936 30.2928 42.7151 30.2928 42.7151H33.6934L33.6294 28.7839Z" fill="#FD7401"/>
<path d="M39.2687 27.594L38.0535 42.7873H34.6849V27.9065L39.2687 27.594Z" fill="#FD7401"/>
</svg>
