<svg width="107" height="183" viewBox="0 0 107 183" fill="none" xmlns="http://www.w3.org/2000/svg">
<path d="M24.0648 136.083C4.34602 122.312 -0.121 96.7477 0.657539 73.7617C0.785169 69.9328 0.364007 65.8742 2.18911 62.5175C4.01421 59.1609 8.27702 56.8508 11.7103 58.4589C14.5564 59.799 15.7944 63.1174 17.3898 65.8614C19.5185 69.5163 22.6379 72.4941 26.3876 74.4509C28.8254 75.7272 31.8502 76.493 34.2624 75.1656C37.5807 73.3405 37.9636 68.7841 37.9381 64.9553C37.9381 57.8335 37.8956 50.7203 37.8105 43.6156C37.5811 39.8006 37.969 35.9735 38.9591 32.2821C40.1461 28.6574 42.788 25.3008 46.3999 24.2798C50.0118 23.2587 54.5171 25.3646 55.334 29.0914C55.4746 30.6699 55.5129 32.2558 55.4488 33.8392C55.5509 35.4346 56.2912 37.1831 57.7845 37.6681C59.2777 38.1531 60.8348 37.0427 61.9835 35.9195C65.9145 32.0907 68.5947 27.1004 71.0834 22.1739C73.5722 17.2474 76.0099 12.1805 79.5835 7.98147C83.1572 3.78247 88.0964 0.451345 93.6228 0.132272C99.1491 -0.186802 104.905 3.20814 106.284 8.56858C107.662 13.929 104.535 19.4043 101.178 23.7565C96.1133 30.2167 90.1425 35.9123 83.4507 40.6674C82.1445 41.3806 81.102 42.4947 80.477 43.8453C79.6474 46.3979 82.0596 48.9505 84.5739 49.7546C87.42 50.699 90.5086 50.4055 93.5079 50.7628C96.5072 51.1202 99.6979 52.422 100.834 55.2299C102.391 59.1353 99.1236 63.2195 95.9201 65.8997C89.4876 71.2601 82.1834 75.4777 74.3252 78.3691C71.5174 79.3901 68.5691 80.2963 66.2973 82.2618C64.0255 84.2273 62.6727 87.6605 64.0383 90.3535C65.4039 93.0465 68.9137 93.9016 71.862 93.3528C74.8102 92.804 77.4266 91.2214 80.2345 90.1621C85.48 88.1838 92.2444 88.5412 95.55 93.072C96.5741 94.6328 97.2223 96.4097 97.4438 98.2633C97.6652 100.117 97.4539 101.996 96.8263 103.755C95.5489 107.253 93.583 110.461 91.0447 113.186C82.6855 123.174 71.8243 130.763 59.5713 135.177C47.4082 139.389 36.1385 140.537 24.052 136.109" fill="#FD7401"/>
<path d="M100.668 3.28467C100.668 3.28467 100.553 3.4123 100.298 3.64203L99.1618 4.65029C98.1663 5.5437 96.6986 6.84553 94.848 8.56852C89.601 13.4403 84.7287 18.7008 80.2727 24.3052C77.4266 27.8406 74.4783 31.8481 71.3387 36.2003C68.199 40.5524 64.9572 45.2492 61.7409 50.2395C58.312 55.5019 55.1719 60.947 52.3346 66.5506C50.8541 69.4733 49.5523 72.5236 48.2122 75.6378L44.2557 85.1461C39.0404 97.1229 34.4983 109.382 30.6504 121.865C27.5509 132.079 25.4145 142.561 24.2689 153.173C23.5266 160.334 23.4071 167.547 23.9116 174.729C24.1158 177.282 24.3072 179.235 24.4859 180.562C24.5625 181.2 24.6135 181.711 24.6646 182.081V182.604C24.6096 182.438 24.5712 182.267 24.5497 182.093C24.4859 181.723 24.4093 181.226 24.3072 180.587C24.0775 179.311 23.835 177.295 23.6053 174.742C22.9895 167.546 23.0322 160.309 23.7329 153.122C24.8073 142.464 26.8972 131.934 29.974 121.674C33.7895 109.155 38.3193 96.8656 43.541 84.8654L47.5996 75.3953C48.9397 72.2939 50.2543 69.218 51.7475 66.2825C54.6045 60.662 57.7703 55.2039 61.2304 49.9332C64.4977 44.828 67.7905 40.2079 70.8919 35.894C73.9933 31.5801 76.9926 27.547 79.826 24.0244C84.3273 18.4348 89.2651 13.2112 94.5927 8.4026C96.4816 6.70513 97.9877 5.42883 99.0087 4.57372L100.196 3.6165C100.341 3.48981 100.499 3.37861 100.668 3.28467Z" fill="#263238"/>
<path d="M51.9139 66.2571C51.7338 65.7313 51.6097 65.188 51.5437 64.6362C51.3395 63.5769 51.1098 62.0836 50.8418 60.1436C50.293 56.3148 49.7314 51.0692 49.1316 45.262C48.5317 39.4549 47.8553 34.1966 47.2937 30.406C47.0001 28.5171 46.7449 26.9983 46.5662 25.939C46.4267 25.3968 46.3539 24.8396 46.3492 24.2798C46.569 24.7911 46.7275 25.3266 46.8215 25.8752C47.1023 26.9217 47.4213 28.4277 47.7787 30.3294C48.5062 34.1583 49.2209 39.3656 49.8207 45.1855C50.4206 51.0054 50.9311 56.1106 51.3268 60.0798C51.5182 61.8666 51.6842 63.3854 51.8118 64.5979C51.9109 65.1451 51.9452 65.7019 51.9139 66.2571Z" fill="#263238"/>
<path d="M101.025 57.0933C100.404 57.2285 99.7719 57.3054 99.1365 57.323C97.8602 57.4379 96.0478 57.591 93.8016 57.8463C89.309 58.3313 83.1317 59.2247 76.3546 60.501C69.5775 61.7773 63.4896 63.2195 59.1119 64.3298C56.9294 64.8914 55.1682 65.402 54.0067 65.7466C53.3866 65.9669 52.7449 66.1209 52.0923 66.206C52.6821 65.9094 53.2971 65.666 53.9301 65.4785C55.1298 65.0574 56.8656 64.4702 59.0353 63.8448C63.3875 62.5686 69.4754 61.0498 76.278 59.748C82.0405 58.6461 87.8551 57.8367 93.6994 57.323C95.9585 57.1316 97.7836 57.055 99.0599 57.0294C99.7155 56.9849 100.374 57.0063 101.025 57.0933Z" fill="#263238"/>
<path d="M30.5996 120.78C30.4635 120.596 30.352 120.394 30.2678 120.18L29.4254 118.406C28.6979 116.862 27.7152 114.578 26.541 111.782C24.1671 106.167 21.1422 98.3047 17.926 89.5749C14.7097 80.845 11.7487 72.9831 9.50244 67.3036C8.40483 64.5468 7.49869 62.2878 6.82225 60.603L6.10749 58.778C6.00843 58.5675 5.93971 58.344 5.90332 58.1143C6.03939 58.299 6.15091 58.5007 6.23513 58.7141L7.07749 60.4882C7.79221 62.0325 8.78774 64.3171 9.96193 67.1122C12.3358 72.7278 15.3606 80.5898 18.5769 89.3197C21.7932 98.0495 24.7542 105.911 27.0005 111.591C28.0981 114.348 29.0042 116.607 29.6679 118.292C29.9615 119.019 30.204 119.568 30.3954 120.117C30.4945 120.327 30.5632 120.551 30.5996 120.78Z" fill="#263238"/>
<path d="M95.7926 99.7598C95.5883 99.8771 95.3694 99.9672 95.1417 100.028L93.2528 100.666L86.2715 102.925C80.375 104.839 72.2323 107.571 63.2982 110.583C54.3642 113.595 46.1831 116.275 40.2483 118.062C37.2873 118.968 34.8751 119.657 33.2032 120.117L31.276 120.614C31.0519 120.686 30.8209 120.733 30.5868 120.755C30.7912 120.638 31.01 120.547 31.2377 120.487L33.1266 119.849L40.1079 117.59C46.0044 115.675 54.1472 112.944 63.0812 109.932C72.0153 106.92 80.1836 104.24 86.1183 102.453C89.0921 101.547 91.4915 100.857 93.1762 100.398L95.1034 99.9001C95.3275 99.829 95.5586 99.7819 95.7926 99.7598Z" fill="#263238"/>
</svg>
