<svg width="90" height="121" viewBox="0 0 90 121" fill="none" xmlns="http://www.w3.org/2000/svg">
<path d="M63.0614 25.7353L57.5715 27.947L55.2157 19.8575C50.8877 4.94073 37.0937 -2.98045 24.4189 2.05593C11.7442 7.09231 4.9964 23.4515 9.32436 38.3683L11.6802 46.4578L6.16901 48.6815C4.06749 49.6006 2.3609 51.3976 1.40399 53.6988C0.447084 56.0001 0.313453 58.6286 1.03089 61.0381L16.3067 113.674C16.6237 114.866 17.1502 115.975 17.8548 116.934C18.5594 117.893 19.4278 118.682 20.4083 119.255C21.3887 119.828 22.4613 120.173 23.5623 120.269C24.6633 120.366 25.7703 120.211 26.8174 119.816L83.7098 96.8697C85.8391 95.9522 87.5699 94.1393 88.5381 91.8124C89.5063 89.4855 89.6365 86.8259 88.9013 84.3929L73.6148 31.7573C73.2895 30.5679 72.755 29.4646 72.0432 28.5131C71.3315 27.5617 70.457 26.7817 69.4721 26.2197C68.4872 25.6576 67.4119 25.3251 66.3105 25.2419C65.2091 25.1587 64.1041 25.3265 63.0614 25.7353ZM19.6965 34.1493C18.5296 30.2707 18.7391 26.0334 20.2811 22.3251C21.8231 18.6168 24.578 15.7252 27.9687 14.2562C29.643 13.6103 31.4155 13.3513 33.1804 13.4946C34.9454 13.638 36.6667 14.1807 38.2416 15.0905C39.8165 16.0003 41.2127 17.2585 42.347 18.79C43.4813 20.3215 44.3303 22.0949 44.8435 24.0044L47.1887 32.0939L22.0417 42.2388L19.6965 34.1493ZM51.6765 80.859L55.5781 94.2974C55.6498 94.5668 55.6266 94.8571 55.5135 95.1078C55.4003 95.3585 55.2059 95.5504 54.9705 95.6436L49.5019 97.8433C49.2843 97.9113 49.0517 97.8818 48.853 97.7608C48.6543 97.6398 48.5048 97.4367 48.4359 97.1942L44.5024 83.816C42.3334 83.6827 40.2523 82.8055 38.5377 81.3018C36.8231 79.7981 35.5568 77.7396 34.9084 75.402C33.9812 72.3115 34.1503 68.9365 35.3803 65.9835C36.6103 63.0305 38.8057 60.7286 41.5069 59.5596C42.8406 59.0458 44.2524 58.84 45.6582 58.9545C47.0639 59.069 48.4348 59.5014 49.6892 60.226C50.9436 60.9506 52.0557 61.9525 52.9594 63.1721C53.8631 64.3916 54.5398 65.8038 54.9492 67.3245C55.635 69.6991 55.6918 72.2477 55.1124 74.6581C54.533 77.0685 53.3426 79.236 51.6872 80.8951L51.6765 80.859Z" fill="#FD7401"/>
<path d="M57.3265 27.8029C57.3265 27.9711 47.1462 32.2863 34.4821 37.4189C21.818 42.5514 11.4884 46.6743 11.4351 46.5541C11.3818 46.4339 21.6154 42.0826 34.2902 36.9381C46.9649 31.7935 57.2732 27.6466 57.3265 27.8029Z" fill="#263238"/>
<path d="M69.4149 30.0144C69.4619 30.1187 69.5011 30.2273 69.5321 30.3389C69.6174 30.5793 69.7133 30.8919 69.8413 31.2765C70.1184 32.154 70.5022 33.368 70.9819 34.8825L75.0753 48.3209C76.7809 54.0183 78.817 60.7736 81.0769 68.2741C82.1429 72.0363 83.4008 75.9548 84.5734 80.0777C85.201 82.2023 85.4721 84.4401 85.3729 86.6767C85.2825 87.8398 84.989 88.9714 84.5094 90.0062C83.9971 91.0376 83.313 91.9477 82.4947 92.6867C80.8477 94.0423 79.0197 95.0932 77.0794 95.7999L71.5895 98.0236L61.196 102.219L43.5963 109.286L31.7105 113.998L28.5125 115.2L27.6596 115.513C27.5685 115.558 27.4712 115.587 27.3718 115.597C27.3718 115.597 27.4571 115.597 27.6383 115.453L28.4698 115.08L31.6678 113.722L43.4897 108.818L61.0574 101.606L71.4296 97.3745L76.9195 95.1388C78.8047 94.4608 80.5796 93.4418 82.1749 92.1217C82.9363 91.4361 83.5733 90.5913 84.0511 89.6336C84.5025 88.6765 84.7746 87.6251 84.8506 86.5445C84.9487 84.3895 84.6884 82.2329 84.083 80.1859C82.9318 76.0991 81.7165 72.1445 80.6185 68.3822C78.4013 60.8697 76.3545 54.0905 74.7342 48.393C73.1139 42.6955 71.7494 38.1159 70.8113 34.8945C70.3636 33.3199 70.0225 32.0939 69.7453 31.2044L69.4895 30.2428C69.4573 30.1699 69.4323 30.0934 69.4149 30.0144Z" fill="#263238"/>
<path d="M39.396 13.4389C39.396 13.4389 38.831 13.1263 37.7864 12.6455C36.2973 12.0004 34.7224 11.6428 33.1279 11.5878C30.7646 11.4964 28.4126 11.9973 26.2416 13.0542C23.6015 14.3704 21.3441 16.4992 19.7283 19.1965C18.1018 21.886 17.229 25.0643 17.2232 28.3196C17.2454 30.9877 17.6044 33.6387 18.2892 36.1927C18.8436 38.3804 19.4192 40.1233 19.8029 41.3373C20.0293 41.9539 20.2146 42.5887 20.3573 43.2364C20.0545 42.6599 19.801 42.0522 19.6004 41.4214C19.1633 40.2194 18.5344 38.5126 17.9161 36.3129C17.1572 33.7321 16.744 31.038 16.6902 28.3196C16.6618 24.9413 17.5549 21.6348 19.2486 18.8479C20.9207 16.0521 23.2704 13.8575 26.0177 12.5253C28.2565 11.4626 30.6818 10.9938 33.1066 11.1551C34.7357 11.2487 36.336 11.6764 37.829 12.4172C38.2282 12.6248 38.613 12.8659 38.9803 13.1384C39.1319 13.2135 39.2722 13.3149 39.396 13.4389Z" fill="#263238"/>
<path d="M39.8868 60.4732C40.0569 60.357 40.2352 60.2565 40.4198 60.1727C40.9534 59.9012 41.506 59.6801 42.0721 59.5116C42.9706 59.2126 43.8974 59.0351 44.833 58.9827C46.1057 58.9056 47.3789 59.1224 48.5747 59.6198C51.3036 60.7016 53.8087 63.8388 55.0453 68.0338C55.6383 70.285 55.6383 72.6821 55.0453 74.9333C54.3877 77.3767 53.2092 79.6011 51.6128 81.4121L51.6767 81.0875C53.0945 85.4748 54.6402 90.2347 56.2392 95.199L56.3352 95.4995L56.0687 95.6077L53.6275 96.5212L48.2975 98.5285L48.031 98.6247L47.9457 98.3242C46.4853 93.3479 44.8863 88.7082 43.6817 84.1526L43.9162 84.357C41.8323 84.1618 39.8452 83.2798 38.2025 81.8207C36.7162 80.53 35.4975 78.8892 34.6314 77.0127C33.8499 75.3487 33.4608 73.4861 33.5014 71.6037C33.5508 69.6799 33.9768 67.7921 34.749 66.0757C35.5211 64.3592 36.6204 62.8565 37.968 61.6752C38.5227 61.1675 39.1451 60.7618 39.8122 60.4732C39.21 60.8761 38.6265 61.3134 38.0639 61.7834C36.5836 63.1956 35.4495 65.0124 34.77 67.0602C34.1868 68.6043 33.9139 70.2749 33.9711 71.952C34.0282 73.6291 34.4139 75.2712 35.1004 76.7603C35.9521 78.5655 37.1415 80.1404 38.5862 81.376C40.1534 82.7628 42.0479 83.5989 44.0335 83.78H44.2147L44.268 83.9603C45.4406 88.4317 47.0503 93.1075 48.532 98.1078L48.1802 97.9155L53.5102 95.9082L55.9407 94.9826L55.7702 95.3913C54.1818 90.4271 52.6468 85.6551 51.2397 81.2678V81.0875L51.3676 80.9433C52.9173 79.2074 54.0729 77.0757 54.7362 74.7289C55.3015 72.5755 55.3015 70.2834 54.7362 68.13C53.5742 64.0912 51.1757 61.0261 48.5747 59.9443C47.4233 59.4437 46.1941 59.2107 44.9609 59.2592C44.0401 59.283 43.1246 59.4241 42.232 59.6799C40.6436 60.1246 39.8974 60.5333 39.8868 60.4732Z" fill="#263238"/>
</svg>
