<svg width="52" height="51" viewBox="0 0 52 51" fill="none" xmlns="http://www.w3.org/2000/svg">
<rect x="0.647339" y="0.330811" width="50.4863" height="50.4863" rx="8.07781" fill="#545E93"/>
<g clip-path="url(#clip0_106_9)">
<path d="M16.8025 16.4865H34.9776C35.2454 16.4865 35.5022 16.5928 35.6916 16.7822C35.8809 16.9716 35.9873 17.2284 35.9873 17.4962V33.6518C35.9873 33.9196 35.8809 34.1764 35.6916 34.3658C35.5022 34.5551 35.2454 34.6615 34.9776 34.6615H16.8025C16.5347 34.6615 16.2779 34.5551 16.0885 34.3658C15.8992 34.1764 15.7928 33.9196 15.7928 33.6518L15.7928 17.4962C15.7928 17.2284 15.8992 16.9716 16.0885 16.7822C16.2779 16.5928 16.5347 16.4865 16.8025 16.4865ZM33.9679 20.7657L25.9627 27.9347L17.8122 20.7435V32.6421H33.9679V20.7657ZM18.3282 18.5059L25.9516 25.2327L33.465 18.5059H18.3282Z" fill="white"/>
</g>
<defs>
<clipPath id="clip0_106_9">
<rect width="24.2334" height="24.2334" fill="white" transform="translate(13.7737 13.4573)"/>
</clipPath>
</defs>
</svg>
