<svg width="71" height="6" viewBox="0 0 71 6" fill="none" xmlns="http://www.w3.org/2000/svg">
<g opacity="0.2">
<path d="M5.75042 2.96877C5.71276 3.48216 5.52523 3.97318 5.21107 4.38096C4.89691 4.78875 4.46996 5.09533 3.98317 5.2627C3.49638 5.43007 2.97116 5.45086 2.47265 5.32249C1.97415 5.19412 1.5243 4.92225 1.17889 4.54058C0.833485 4.1589 0.60773 3.6842 0.529605 3.1754C0.451481 2.6666 0.524422 2.14606 0.739406 1.67834C0.954391 1.21062 1.30196 0.816308 1.73898 0.544291C2.17601 0.272274 2.68325 0.134523 3.19783 0.148137C3.90888 0.187757 4.57565 0.506131 5.0535 1.03416C5.53135 1.56218 5.78176 2.25732 5.75042 2.96877Z" fill="white"/>
<path d="M13.8805 3.00709C13.9056 3.3669 13.8564 3.728 13.736 4.06799C13.6155 4.40798 13.4264 4.71956 13.1804 4.98334C12.9344 5.24712 12.6368 5.45746 12.306 5.60127C11.9752 5.74509 11.6184 5.81931 11.2577 5.81931C10.897 5.81931 10.5402 5.74509 10.2094 5.60127C9.87861 5.45746 9.58097 5.24712 9.33496 4.98334C9.08895 4.71956 8.89986 4.40798 8.77942 4.06799C8.65899 3.728 8.60981 3.3669 8.63492 3.00709C8.60981 2.64727 8.65899 2.28614 8.77942 1.94615C8.89986 1.60616 9.08895 1.29457 9.33496 1.0308C9.58097 0.767019 9.87861 0.556677 10.2094 0.412863C10.5402 0.269049 10.897 0.194824 11.2577 0.194824C11.6184 0.194824 11.9752 0.269049 12.306 0.412863C12.6368 0.556677 12.9344 0.767019 13.1804 1.0308C13.4264 1.29457 13.6155 1.60616 13.736 1.94615C13.8564 2.28614 13.9056 2.64727 13.8805 3.00709Z" fill="white"/>
<path d="M22.0235 3.04543C21.9858 3.55882 21.7983 4.04984 21.4841 4.45762C21.17 4.86541 20.743 5.17199 20.2562 5.33936C19.7694 5.50673 19.2442 5.52752 18.7457 5.39915C18.2472 5.27078 17.7974 4.99891 17.452 4.61724C17.1066 4.23556 16.8808 3.76086 16.8027 3.25206C16.7246 2.74326 16.7975 2.22272 17.0125 1.755C17.2275 1.28728 17.575 0.892968 18.0121 0.620951C18.4491 0.348934 18.9563 0.211183 19.4709 0.224797C20.1808 0.267649 20.8456 0.586959 21.3228 1.11425C21.7999 1.64153 22.0515 2.33484 22.0235 3.04543Z" fill="white"/>
<path d="M30.1534 3.08376C30.1157 3.59715 29.9282 4.08817 29.614 4.49595C29.2999 4.90374 28.8729 5.21032 28.3861 5.37769C27.8993 5.54506 27.3741 5.56585 26.8756 5.43748C26.3771 5.30911 25.9273 5.03724 25.5819 4.65557C25.2365 4.27389 25.0107 3.79923 24.9326 3.29043C24.8544 2.78163 24.9274 2.26105 25.1424 1.79333C25.3574 1.32561 25.7049 0.931298 26.1419 0.659281C26.579 0.387264 27.0862 0.249513 27.6008 0.263127C28.3107 0.305979 28.9755 0.625289 29.4526 1.15258C29.9298 1.67986 30.1814 2.37317 30.1534 3.08376Z" fill="white"/>
<path d="M38.2834 3.1091C38.2482 3.62324 38.0627 4.1157 37.7499 4.52526C37.4371 4.93482 37.0108 5.24343 36.5241 5.41272C36.0374 5.58202 35.5116 5.60452 35.0122 5.47746C34.5127 5.35039 34.0616 5.07936 33.715 4.69804C33.3683 4.31672 33.1414 3.84192 33.0624 3.33267C32.9833 2.82342 33.0557 2.3022 33.2705 1.83374C33.4853 1.36528 33.833 0.970278 34.2704 0.69782C34.7078 0.425361 35.2157 0.287431 35.7309 0.301237C36.4384 0.344074 37.1013 0.661612 37.5781 1.18613C38.0549 1.71064 38.308 2.40066 38.2834 3.1091Z" fill="white"/>
<path d="M46.426 3.14747C46.3911 3.65896 46.2075 4.14908 45.8977 4.55756C45.5879 4.96603 45.1654 5.27506 44.6823 5.44654C44.1991 5.61801 43.6764 5.64449 43.1784 5.52272C42.6804 5.40095 42.2289 5.13622 41.8794 4.76114C41.5299 4.38607 41.2976 3.91701 41.2113 3.41166C41.1249 2.90632 41.1882 2.38676 41.3933 1.9169C41.5984 1.44705 41.9364 1.04739 42.3657 0.767156C42.795 0.486919 43.2969 0.338305 43.8095 0.339608C44.5284 0.366222 45.2074 0.676704 45.6979 1.203C46.1883 1.72929 46.4501 2.42851 46.426 3.14747Z" fill="white"/>
<path d="M54.556 3.18576C54.5811 3.54557 54.5319 3.90671 54.4115 4.2467C54.2911 4.58669 54.102 4.89828 53.856 5.16205C53.61 5.42583 53.3123 5.63617 52.9815 5.77998C52.6507 5.9238 52.2939 5.99798 51.9332 5.99798C51.5725 5.99798 51.2157 5.9238 50.8849 5.77998C50.5541 5.63617 50.2565 5.42583 50.0105 5.16205C49.7645 4.89828 49.5754 4.58669 49.455 4.2467C49.3345 3.90671 49.2853 3.54557 49.3105 3.18576C49.2853 2.82595 49.3345 2.46481 49.455 2.12482C49.5754 1.78483 49.7645 1.47324 50.0105 1.20947C50.2565 0.945691 50.5541 0.735388 50.8849 0.591574C51.2157 0.447759 51.5725 0.373535 51.9332 0.373535C52.2939 0.373535 52.6507 0.447759 52.9815 0.591574C53.3123 0.735388 53.61 0.945691 53.856 1.20947C54.102 1.47324 54.2911 1.78483 54.4115 2.12482C54.5319 2.46481 54.5811 2.82595 54.556 3.18576Z" fill="white"/>
<path d="M62.6862 3.22409C62.6514 3.73558 62.4677 4.22574 62.1579 4.63422C61.8481 5.04269 61.4257 5.35168 60.9425 5.52316C60.4594 5.69464 59.9366 5.72111 59.4386 5.59934C58.9406 5.47757 58.4891 5.21284 58.1396 4.83777C57.7901 4.46269 57.5579 3.99363 57.4715 3.48829C57.3852 2.98294 57.4484 2.46338 57.6535 1.99352C57.8587 1.52367 58.1967 1.12401 58.626 0.843777C59.0553 0.563541 59.5571 0.414965 60.0698 0.416268C60.7887 0.442882 61.4677 0.753325 61.9581 1.27962C62.4485 1.80592 62.7103 2.50513 62.6862 3.22409Z" fill="white"/>
<path d="M70.816 3.26238C70.7808 3.77652 70.5953 4.26898 70.2825 4.67854C69.9697 5.08811 69.5435 5.39671 69.0567 5.566C68.57 5.7353 68.0442 5.75784 67.5448 5.63078C67.0454 5.50371 66.5942 5.23265 66.2476 4.85132C65.9009 4.47 65.674 3.9952 65.5949 3.48595C65.5159 2.9767 65.5883 2.45548 65.8031 1.98702C66.0179 1.51857 66.3656 1.12356 66.803 0.851101C67.2404 0.578642 67.7483 0.440751 68.2634 0.454557C68.971 0.497395 69.6339 0.814894 70.1107 1.33941C70.5875 1.86393 70.8406 2.55394 70.816 3.26238Z" fill="white"/>
</g>
</svg>
