<svg width="60" height="6" viewBox="0 0 60 6" fill="none" xmlns="http://www.w3.org/2000/svg">
<g opacity="0.2">
<path d="M4.85514 2.71347C4.82369 3.19696 4.66705 3.6594 4.40466 4.04345C4.14227 4.42749 3.78567 4.71623 3.37908 4.87386C2.9725 5.03149 2.53381 5.05106 2.11745 4.93017C1.70109 4.80927 1.32536 4.55323 1.03686 4.19377C0.748367 3.83432 0.55981 3.38725 0.494557 2.90806C0.429305 2.42888 0.490228 1.93864 0.66979 1.49815C0.849351 1.05765 1.13965 0.686295 1.50467 0.430113C1.86968 0.17393 2.29335 0.0441976 2.72314 0.0570186C3.31703 0.0943329 3.87394 0.394173 4.27305 0.891464C4.67217 1.38875 4.88132 2.04342 4.85514 2.71347Z" fill="white"/>
<path d="M11.6456 2.74963C11.6666 3.0885 11.6255 3.42858 11.5249 3.74878C11.4243 4.06898 11.2664 4.36243 11.0609 4.61085C10.8554 4.85927 10.6068 5.05737 10.3306 5.19281C10.0543 5.32825 9.75625 5.39816 9.45499 5.39816C9.15373 5.39816 8.85569 5.32825 8.57941 5.19281C8.30313 5.05737 8.05453 4.85927 7.84906 4.61085C7.64358 4.36243 7.48565 4.06898 7.38506 3.74878C7.28447 3.42858 7.24339 3.0885 7.26436 2.74963C7.24339 2.41076 7.28447 2.07065 7.38506 1.75045C7.48565 1.43025 7.64358 1.1368 7.84906 0.888383C8.05453 0.639961 8.30313 0.441864 8.57941 0.306421C8.85569 0.170978 9.15373 0.101074 9.45499 0.101074C9.75625 0.101074 10.0543 0.170978 10.3306 0.306421C10.6068 0.441864 10.8554 0.639961 11.0609 0.888383C11.2664 1.1368 11.4243 1.43025 11.5249 1.75045C11.6255 2.07065 11.6666 2.41076 11.6456 2.74963Z" fill="white"/>
<path d="M18.4469 2.78549C18.4155 3.26899 18.2589 3.73143 17.9965 4.11547C17.7341 4.49952 17.3775 4.78825 16.9709 4.94588C16.5643 5.10351 16.1256 5.12309 15.7092 5.00219C15.2929 4.88129 14.9172 4.62525 14.6287 4.26579C14.3402 3.90634 14.1516 3.45927 14.0864 2.98009C14.0211 2.5009 14.082 2.01067 14.2616 1.57017C14.4411 1.12968 14.7315 0.758317 15.0965 0.502134C15.4615 0.245951 15.8851 0.116219 16.3149 0.12904C16.9078 0.169398 17.4631 0.47012 17.8617 0.966713C18.2602 1.46331 18.4703 2.11625 18.4469 2.78549Z" fill="white"/>
<path d="M25.2372 2.82162C25.2058 3.30512 25.0491 3.76756 24.7867 4.1516C24.5243 4.53565 24.1677 4.82438 23.7612 4.98201C23.3546 5.13964 22.9159 5.15922 22.4995 5.03832C22.0832 4.91742 21.7074 4.66138 21.419 4.30193C21.1305 3.94247 20.9419 3.49544 20.8766 3.01625C20.8114 2.53707 20.8723 2.0468 21.0519 1.6063C21.2314 1.16581 21.5217 0.79445 21.8867 0.538267C22.2518 0.282084 22.6754 0.152352 23.1052 0.165173C23.6981 0.20553 24.2534 0.506253 24.6519 1.00285C25.0505 1.49944 25.2606 2.15239 25.2372 2.82162Z" fill="white"/>
<path d="M32.0278 2.84574C31.9984 3.32996 31.8434 3.79375 31.5822 4.17947C31.3209 4.56519 30.9649 4.85583 30.5583 5.01527C30.1518 5.17471 29.7127 5.1959 29.2955 5.07624C28.8784 4.95657 28.5016 4.70132 28.2121 4.34219C27.9225 3.98306 27.733 3.5359 27.667 3.0563C27.601 2.57669 27.6614 2.08581 27.8408 1.64462C28.0202 1.20344 28.3106 0.831424 28.676 0.574826C29.0413 0.318227 29.4655 0.188326 29.8958 0.201328C30.4868 0.241672 31.0404 0.540726 31.4387 1.03471C31.8369 1.52869 32.0483 2.17855 32.0278 2.84574Z" fill="white"/>
<path d="M38.8286 2.88173C38.7995 3.36344 38.6462 3.82503 38.3874 4.20973C38.1286 4.59443 37.7758 4.88547 37.3722 5.04696C36.9687 5.20846 36.5321 5.2334 36.1162 5.11871C35.7002 5.00403 35.3231 4.75471 35.0312 4.40147C34.7393 4.04823 34.5453 3.60647 34.4731 3.13054C34.401 2.65461 34.4539 2.16529 34.6252 1.72279C34.7965 1.28029 35.0788 0.903896 35.4374 0.639972C35.796 0.376049 36.2151 0.236085 36.6433 0.237313C37.2437 0.262377 37.8109 0.554786 38.2205 1.05045C38.6301 1.5461 38.8488 2.20462 38.8286 2.88173Z" fill="white"/>
<path d="M45.619 2.91781C45.64 3.25668 45.5989 3.5968 45.4983 3.91699C45.3977 4.23719 45.2398 4.53064 45.0343 4.77906C44.8288 5.02748 44.5802 5.22558 44.3039 5.36102C44.0277 5.49647 43.7296 5.56633 43.4284 5.56633C43.1271 5.56633 42.8291 5.49647 42.5528 5.36102C42.2765 5.22558 42.0279 5.02748 41.8224 4.77906C41.617 4.53064 41.459 4.23719 41.3584 3.91699C41.2579 3.5968 41.2168 3.25668 41.2378 2.91781C41.2168 2.57894 41.2579 2.23882 41.3584 1.91863C41.459 1.59843 41.617 1.30498 41.8224 1.05656C42.0279 0.808137 42.2765 0.610077 42.5528 0.474634C42.8291 0.339191 43.1271 0.269287 43.4284 0.269287C43.7296 0.269287 44.0277 0.339191 44.3039 0.474634C44.5802 0.610077 44.8288 0.808137 45.0343 1.05656C45.2398 1.30498 45.3977 1.59843 45.4983 1.91863C45.5989 2.23882 45.64 2.57894 45.619 2.91781Z" fill="white"/>
<path d="M52.4097 2.95396C52.3806 3.43567 52.2272 3.8973 51.9684 4.282C51.7097 4.6667 51.3568 4.9577 50.9533 5.11919C50.5497 5.28069 50.1131 5.30562 49.6972 5.19094C49.2812 5.07626 48.9041 4.82694 48.6122 4.4737C48.3203 4.12046 48.1263 3.6787 48.0542 3.20277C47.9821 2.72684 48.0349 2.23752 48.2062 1.79502C48.3775 1.35252 48.6599 0.976125 49.0184 0.712201C49.377 0.448278 49.7962 0.308351 50.2244 0.309578C50.8248 0.334643 51.3919 0.627015 51.8015 1.12267C52.2111 1.61833 52.4298 2.27684 52.4097 2.95396Z" fill="white"/>
<path d="M59.2 2.98999C59.1706 3.47421 59.0157 3.938 58.7544 4.32372C58.4931 4.70944 58.1371 5.00008 57.7306 5.15952C57.3241 5.31896 56.8849 5.34019 56.4678 5.22052C56.0506 5.10086 55.6738 4.84557 55.3843 4.48644C55.0948 4.12731 54.9052 3.68015 54.8392 3.20055C54.7732 2.72094 54.8337 2.23006 55.0131 1.78887C55.1924 1.34769 55.4829 0.975675 55.8482 0.719076C56.2136 0.462478 56.6377 0.332613 57.068 0.345616C57.659 0.385959 58.2126 0.684977 58.6109 1.17896C59.0092 1.67294 59.2206 2.3228 59.2 2.98999Z" fill="white"/>
</g>
</svg>
