<svg width="352" height="64" viewBox="0 0 352 64" fill="none" xmlns="http://www.w3.org/2000/svg">
<path d="M0.5 6.2C0.5 5.06192 0.502232 4.56292 0.579707 4.15678C0.925583 2.34364 2.34364 0.925583 4.15678 0.579707C4.56292 0.502232 5.06192 0.5 6.2 0.5H345.8C346.938 0.5 347.437 0.502232 347.843 0.579708C349.656 0.925583 351.074 2.34364 351.42 4.15678C351.498 4.56292 351.5 5.06192 351.5 6.2V57.8C351.5 58.9381 351.498 59.4371 351.42 59.8432C351.074 61.6564 349.656 63.0744 347.843 63.4203C347.437 63.4978 346.938 63.5 345.8 63.5H6.2C5.06192 63.5 4.56292 63.4978 4.15678 63.4203C2.34364 63.0744 0.925584 61.6564 0.579707 59.8432L0.0889273 59.9368L0.579707 59.8432C0.502232 59.4371 0.5 58.9381 0.5 57.8V6.2Z" fill="#FFFBFB"/>
<path d="M0.5 6.2C0.5 5.06192 0.502232 4.56292 0.579707 4.15678C0.925583 2.34364 2.34364 0.925583 4.15678 0.579707C4.56292 0.502232 5.06192 0.5 6.2 0.5H345.8C346.938 0.5 347.437 0.502232 347.843 0.579708C349.656 0.925583 351.074 2.34364 351.42 4.15678C351.498 4.56292 351.5 5.06192 351.5 6.2V57.8C351.5 58.9381 351.498 59.4371 351.42 59.8432C351.074 61.6564 349.656 63.0744 347.843 63.4203C347.437 63.4978 346.938 63.5 345.8 63.5H6.2C5.06192 63.5 4.56292 63.4978 4.15678 63.4203C2.34364 63.0744 0.925584 61.6564 0.579707 59.8432L0.0889273 59.9368L0.579707 59.8432C0.502232 59.4371 0.5 58.9381 0.5 57.8V6.2Z" fill="black" fill-opacity="0.2"/>
<path d="M0.5 6.2C0.5 5.06192 0.502232 4.56292 0.579707 4.15678C0.925583 2.34364 2.34364 0.925583 4.15678 0.579707C4.56292 0.502232 5.06192 0.5 6.2 0.5H345.8C346.938 0.5 347.437 0.502232 347.843 0.579708C349.656 0.925583 351.074 2.34364 351.42 4.15678C351.498 4.56292 351.5 5.06192 351.5 6.2V57.8C351.5 58.9381 351.498 59.4371 351.42 59.8432C351.074 61.6564 349.656 63.0744 347.843 63.4203C347.437 63.4978 346.938 63.5 345.8 63.5H6.2C5.06192 63.5 4.56292 63.4978 4.15678 63.4203C2.34364 63.0744 0.925584 61.6564 0.579707 59.8432L0.0889273 59.9368L0.579707 59.8432C0.502232 59.4371 0.5 58.9381 0.5 57.8V6.2Z" stroke="black"/>
</svg>
