<svg width="1266" height="447" viewBox="0 0 1266 447" fill="none" xmlns="http://www.w3.org/2000/svg">
<g filter="url(#filter0_d_60_13)">
<path d="M69.5585 12.6623C70.5985 8.36238 71.1184 6.21241 72.2935 4.60307C73.3749 3.12198 74.8428 1.96678 76.5366 1.26382C78.3771 0.500001 80.5891 0.500001 85.013 0.500001L1246.1 0.499967C1251.61 0.499969 1254.36 0.49997 1256.47 1.55452C1258.41 2.52245 1259.98 4.09304 1260.95 6.03018C1262 8.14067 1262 10.8938 1262 16.4L1262 422.123C1262 428.24 1262 431.299 1260.79 433.532C1259.67 435.579 1257.88 437.173 1255.72 438.04C1253.36 438.985 1250.32 438.628 1244.25 437.914L19.8166 294.093C13.7224 293.377 10.6753 293.019 8.59576 291.548C6.68995 290.199 5.31607 288.226 4.71226 285.971C4.0534 283.51 4.77462 280.528 6.21707 274.564L69.5585 12.6623Z" fill="#222A40"/>
</g>
<defs>
<filter id="filter0_d_60_13" x="0.466553" y="0.5" width="1265.53" height="446.112" filterUnits="userSpaceOnUse" color-interpolation-filters="sRGB">
<feFlood flood-opacity="0" result="BackgroundImageFix"/>
<feColorMatrix in="SourceAlpha" type="matrix" values="0 0 0 0 0 0 0 0 0 0 0 0 0 0 0 0 0 0 127 0" result="hardAlpha"/>
<feOffset dy="4"/>
<feGaussianBlur stdDeviation="2"/>
<feComposite in2="hardAlpha" operator="out"/>
<feColorMatrix type="matrix" values="0 0 0 0 0 0 0 0 0 0 0 0 0 0 0 0 0 0 0.25 0"/>
<feBlend mode="normal" in2="BackgroundImageFix" result="effect1_dropShadow_60_13"/>
<feBlend mode="normal" in="SourceGraphic" in2="effect1_dropShadow_60_13" result="shape"/>
</filter>
</defs>
</svg>
