<svg width="5" height="5" viewBox="0 0 5 5" fill="none" xmlns="http://www.w3.org/2000/svg">
<path d="M4.85514 2.71347C4.82369 3.19696 4.66705 3.6594 4.40466 4.04345C4.14227 4.42749 3.78567 4.71623 3.37908 4.87386C2.9725 5.03149 2.53381 5.05106 2.11745 4.93017C1.70109 4.80927 1.32536 4.55323 1.03686 4.19377C0.748367 3.83432 0.55981 3.38725 0.494557 2.90806C0.429305 2.42888 0.490228 1.93864 0.66979 1.49815C0.849351 1.05765 1.13965 0.686295 1.50467 0.430113C1.86968 0.17393 2.29335 0.0441976 2.72314 0.0570186C3.31703 0.0943329 3.87394 0.394173 4.27305 0.891464C4.67217 1.38875 4.88132 2.04342 4.85514 2.71347Z" fill="#FD7401"/>
</svg>
