<svg width="6" height="6" viewBox="0 0 6 6" fill="none" xmlns="http://www.w3.org/2000/svg">
<path d="M5.23736 2.82162C5.2059 3.30512 5.04925 3.76756 4.78686 4.1516C4.52447 4.53565 4.16787 4.82438 3.76128 4.98201C3.3547 5.13964 2.91601 5.15922 2.49965 5.03832C2.08329 4.91742 1.70757 4.66138 1.41908 4.30193C1.13058 3.94247 0.942009 3.49544 0.876757 3.01625C0.811504 2.53707 0.872444 2.0468 1.05201 1.6063C1.23157 1.16581 1.52185 0.79445 1.88687 0.538267C2.25188 0.282084 2.67556 0.152352 3.10536 0.165173C3.69825 0.20553 4.25351 0.506253 4.65207 1.00285C5.05062 1.49944 5.26075 2.15239 5.23736 2.82162Z" fill="#FD7401"/>
</svg>
