<svg width="133" height="24" viewBox="0 0 133 24" fill="none" xmlns="http://www.w3.org/2000/svg">
<path d="M129.711 23.3834C129.969 23.353 130.225 23.3061 130.477 23.2431C130.832 23.1303 131.159 22.9434 131.436 22.6947C131.713 22.4461 131.934 22.1414 132.085 21.8008C132.285 21.2854 132.364 20.7307 132.315 20.18C132.315 19.5546 132.315 18.9037 132.315 18.1507C132.315 16.6829 132.315 14.9854 132.315 13.0455V4.94101C132.376 4.35425 132.246 3.76348 131.944 3.25629C131.622 2.74562 131.129 2.36577 130.553 2.18421C129.918 2.06624 129.271 2.02766 128.626 2.06935L110.26 2.06935L3.88113 1.6737C3.30893 1.67505 2.75668 1.88415 2.32707 2.26211C1.89747 2.64007 1.61974 3.16115 1.54551 3.72851C1.54551 5.00481 1.54551 6.2811 1.54551 7.5574C1.54551 10.11 1.54551 12.6626 1.54551 15.2152C1.54551 16.4915 1.54551 17.7677 1.54551 19.044C1.49798 19.6363 1.5237 20.2322 1.62209 20.8181C1.77493 21.3389 2.10436 21.7901 2.55378 22.0944C3.02229 22.4003 3.57835 22.5438 4.13639 22.5028H9.68826L37.9327 22.656L85.7554 22.9495L117.995 23.2048L126.763 23.3069H129.047C129.558 23.3069 129.813 23.3069 129.813 23.3069C129.813 23.3069 129.558 23.3069 129.047 23.3069H126.763H117.995L85.7554 23.3069L37.9327 23.1665L9.68826 23.0516H4.13639C3.44549 23.0982 2.75867 22.9142 2.18366 22.5283C1.60291 22.126 1.17907 21.5354 0.98394 20.8564C0.869548 20.2079 0.835254 19.5478 0.881834 18.8909C0.881834 17.6146 0.881834 16.3383 0.881834 15.062C0.881834 12.5094 0.881834 9.95683 0.881834 7.40425C0.881834 6.12795 0.881834 4.85168 0.881834 3.51157C0.972063 2.78285 1.32538 2.11219 1.87536 1.62568C2.42533 1.13916 3.13408 0.870287 3.86836 0.869629L110.247 1.45671L128.613 1.59713C129.297 1.55517 129.984 1.60235 130.655 1.7375C131.319 1.95416 131.878 2.40887 132.225 3.01379C132.555 3.57594 132.698 4.22846 132.634 4.87717C132.634 5.47703 132.634 6.07691 132.634 6.65124C132.634 8.96133 132.634 11.08 132.634 13.0327C132.634 14.9854 132.634 16.6319 132.634 18.1379C132.634 18.8654 132.634 19.5418 132.634 20.1672C132.683 20.738 132.591 21.3122 132.366 21.8391C132.2 22.1913 131.96 22.5036 131.663 22.7547C131.366 23.0058 131.018 23.1898 130.643 23.2941C130.343 23.3966 130.024 23.4271 129.711 23.3834Z" fill="#E0E0E0"/>
</svg>
