<svg width="6" height="6" viewBox="0 0 6 6" fill="none" xmlns="http://www.w3.org/2000/svg">
<path d="M5.81615 3.26238C5.78094 3.77652 5.59542 4.26898 5.28262 4.67854C4.96983 5.08811 4.54359 5.39671 4.05685 5.566C3.5701 5.7353 3.04434 5.75784 2.54491 5.63078C2.04547 5.50371 1.59436 5.23265 1.2477 4.85132C0.90104 4.47 0.674094 3.9952 0.595063 3.48595C0.516031 2.9767 0.588429 2.45548 0.803208 1.98702C1.01799 1.51857 1.36568 1.12356 1.80312 0.851101C2.24055 0.578642 2.7484 0.440751 3.26356 0.454557C3.97113 0.497395 4.63399 0.814894 5.11082 1.33941C5.58765 1.86393 5.84074 2.55394 5.81615 3.26238Z" fill="#FD7401"/>
</svg>
