<svg width="186" height="377" viewBox="0 0 186 377" fill="none" xmlns="http://www.w3.org/2000/svg">
<path d="M155.997 376.571L28.5082 375.984C21.1458 375.944 14.1005 372.983 8.91963 367.752C3.73874 362.52 0.845911 355.447 0.87646 348.084L2.22933 28.4877C2.24438 24.8401 2.97814 21.2312 4.3887 17.8674C5.79926 14.5035 7.85897 11.4507 10.45 8.88332C13.0411 6.31595 16.1128 4.28439 19.4894 2.90481C22.8661 1.52522 26.4815 0.824651 30.1291 0.84313L157.605 1.43022C164.968 1.46738 172.014 4.42512 177.198 9.65386C182.381 14.8826 185.277 21.9548 185.25 29.3172L183.897 348.901C183.882 352.55 183.148 356.16 181.738 359.525C180.328 362.891 178.269 365.945 175.678 368.515C173.087 371.084 170.016 373.118 166.639 374.5C163.262 375.883 159.646 376.586 155.997 376.571Z" fill="#455A64"/>
</svg>
