<svg width="6" height="6" viewBox="0 0 6 6" fill="none" xmlns="http://www.w3.org/2000/svg">
<path d="M5.75042 2.96877C5.71276 3.48216 5.52523 3.97318 5.21107 4.38096C4.89691 4.78875 4.46996 5.09533 3.98317 5.2627C3.49638 5.43007 2.97116 5.45086 2.47265 5.32249C1.97415 5.19412 1.5243 4.92225 1.17889 4.54058C0.833485 4.1589 0.60773 3.6842 0.529605 3.1754C0.451481 2.6666 0.524422 2.14606 0.739406 1.67834C0.954391 1.21062 1.30196 0.816308 1.73898 0.544291C2.17601 0.272274 2.68325 0.134523 3.19783 0.148137C3.90888 0.187757 4.57565 0.506131 5.0535 1.03416C5.53135 1.56218 5.78176 2.25732 5.75042 2.96877Z" fill="#FD7401"/>
</svg>
