<svg width="133" height="24" viewBox="0 0 133 24" fill="none" xmlns="http://www.w3.org/2000/svg">
<path d="M129.796 23.1079C130.054 23.0818 130.307 23.0217 130.549 22.9292C130.902 22.7911 131.209 22.5561 131.435 22.2514C131.661 21.9466 131.796 21.5843 131.825 21.2062C131.825 19.1769 131.825 16.2159 131.825 12.4125C131.825 10.5108 131.825 8.37942 131.825 6.03104C131.825 5.45671 131.825 4.85685 131.825 4.25699C131.908 3.67493 131.782 3.08226 131.468 2.58505C131.292 2.34665 131.063 2.15226 130.8 2.01717C130.536 1.88208 130.245 1.80997 129.949 1.80651H127.958L109.515 1.80651L2.76622 1.41086C2.49299 1.40622 2.22268 1.46761 1.97826 1.58982C1.73384 1.71203 1.52254 1.89146 1.36231 2.11283C1.05411 2.61205 0.936273 3.20568 1.03046 3.78477C1.03046 5.06107 1.03046 6.33736 1.03046 7.61365C1.03046 10.1662 1.03046 12.7188 1.03046 15.2714C1.03046 16.5477 1.03046 17.824 1.03046 19.1003C0.977517 19.6947 0.977517 20.2927 1.03046 20.8871C1.09751 21.1419 1.22213 21.378 1.39472 21.5772C1.5673 21.7763 1.78325 21.9332 2.02597 22.0358C2.27745 22.1359 2.54672 22.1836 2.81729 22.1762H9.31362L37.6601 22.3293L85.6488 22.6229L118.003 22.8781L126.796 22.9802H129.081C129.604 22.9802 129.86 22.9802 129.86 22.9802H129.081H126.796H118.003L85.6488 22.9802L37.6601 22.8271L9.31362 22.7122H2.81729C2.45976 22.7267 2.10319 22.6658 1.77072 22.5335C1.43465 22.3901 1.13579 22.1718 0.896905 21.8953C0.658024 21.6189 0.485436 21.2915 0.392316 20.9382C0.318434 20.6032 0.292653 20.2594 0.315741 19.9171L0.315741 18.9727C0.315741 17.6964 0.315741 16.4201 0.315741 15.1438C0.315741 12.5912 0.315741 10.0386 0.315741 7.48602C0.315741 6.20972 0.315741 4.93343 0.315741 3.65713C0.2914 3.31722 0.2914 2.97601 0.315741 2.6361C0.363566 2.26066 0.508767 1.90427 0.736921 1.6023C0.957093 1.29422 1.2485 1.04396 1.58629 0.872837C1.92408 0.701717 2.29826 0.614835 2.67689 0.619568L109.426 1.20665L127.869 1.33429H129.86C130.21 1.33456 130.556 1.41938 130.867 1.58156C131.178 1.74375 131.445 1.97852 131.646 2.26598C132.006 2.82087 132.151 3.48789 132.055 4.14213C132.055 4.74199 132.055 5.34185 132.055 5.91618C132.055 8.23904 132.055 10.3704 132.055 12.2977C132.055 16.1265 131.965 19.062 131.94 21.1041C131.909 21.4967 131.766 21.8723 131.529 22.1866C131.291 22.5008 130.969 22.7408 130.6 22.8781C130.358 23.0278 130.08 23.1074 129.796 23.1079Z" fill="#E0E0E0"/>
</svg>
