<svg width="7" height="6" viewBox="0 0 7 6" fill="none" xmlns="http://www.w3.org/2000/svg">
<path d="M6.15351 3.08376C6.11585 3.59715 5.9283 4.08817 5.61414 4.49595C5.29999 4.90374 4.87304 5.21032 4.38624 5.37769C3.89945 5.54506 3.37423 5.56585 2.87573 5.43748C2.37723 5.30911 1.92739 5.03724 1.58198 4.65557C1.23658 4.27389 1.0108 3.79923 0.932678 3.29043C0.854553 2.78163 0.927514 2.26105 1.1425 1.79333C1.35748 1.32561 1.70504 0.931298 2.14206 0.659281C2.57908 0.387264 3.08634 0.249513 3.60093 0.263127C4.31078 0.305979 4.97557 0.625289 5.45276 1.15258C5.92994 1.67986 6.18152 2.37317 6.15351 3.08376Z" fill="#FD7401"/>
</svg>
