<svg width="141" height="332" viewBox="0 0 141 332" fill="none" xmlns="http://www.w3.org/2000/svg">
<path d="M124.12 0.58405L103.482 0.58405C102.808 0.598124 102.144 0.76165 101.527 1.06528C100.909 1.36892 100.351 1.8067 99.884 2.35365C99.4167 2.9006 99.0496 3.54598 98.8036 4.25293C98.5576 4.95989 98.4376 5.71456 98.4503 6.47385V10.6929C98.463 11.4516 98.3428 12.2057 98.0967 12.9119C97.8506 13.6182 97.4833 14.2628 97.0159 14.8088C96.5486 15.3548 95.9902 15.7914 95.373 16.0937C94.7557 16.3961 94.0917 16.5581 93.4188 16.5707L53.1879 16.3663C51.8269 16.3254 50.536 15.6771 49.5986 14.5638C48.6612 13.4504 48.154 11.9631 48.1884 10.4284V6.20941C48.2228 4.67676 47.717 3.19122 46.7819 2.07823C45.8468 0.965246 44.5586 0.315567 43.1995 0.271527L35.94 0.271527L17.8713 0.175374C13.5736 0.146521 9.44091 2.03906 6.37805 5.43862C3.31519 8.83817 1.57178 13.4677 1.52955 18.3136L0.463551 312.106C0.453729 314.51 0.863939 316.893 1.67077 319.118C2.4776 321.344 3.66527 323.368 5.16592 325.076C6.66657 326.783 8.45083 328.141 10.4168 329.071C12.3828 330.002 14.4921 330.486 16.6241 330.497L122.883 331.05C125.016 331.061 127.131 330.598 129.106 329.688C131.081 328.777 132.877 327.437 134.392 325.744C135.908 324.051 137.113 322.038 137.938 319.819C138.764 317.601 139.194 315.221 139.203 312.816L140.269 19.0227C140.295 14.1632 138.608 9.49115 135.58 6.03356C132.551 2.57596 128.429 0.61583 124.12 0.58405Z" fill="white"/>
</svg>
