<svg width="168" height="353" viewBox="0 0 168 353" fill="none" xmlns="http://www.w3.org/2000/svg">
<path d="M148.413 1.41902L123.704 1.41902C122.898 1.43397 122.103 1.6076 121.364 1.93C120.625 2.2524 119.956 2.71725 119.397 3.298C118.837 3.87875 118.398 4.56402 118.103 5.31467C117.809 6.06532 117.665 6.86664 117.68 7.67286V12.1527C117.696 12.9583 117.552 13.7589 117.257 14.5089C116.962 15.2588 116.523 15.9432 115.963 16.5229C115.403 17.1027 114.735 17.5663 113.996 17.8873C113.257 18.2084 112.462 18.3804 111.656 18.3937L63.4889 18.1768C61.8594 18.1333 60.3138 17.4449 59.1915 16.2628C58.0692 15.0807 57.4619 13.5014 57.5031 11.8719V7.39208C57.5443 5.7647 56.9387 4.18734 55.8192 3.00556C54.6996 1.82378 53.1572 1.13394 51.53 1.08718L42.8384 1.08718L21.2053 0.985086C16.0597 0.954451 11.1117 2.96397 7.44464 6.57364C3.77755 10.1833 1.69021 15.099 1.63966 20.2444L0.363365 332.196C0.351606 334.749 0.842739 337.279 1.80874 339.642C2.77474 342.004 4.19669 344.154 5.99339 345.967C7.79008 347.78 9.92632 349.222 12.2802 350.21C14.634 351.197 17.1594 351.712 19.712 351.723L146.933 352.31C149.487 352.322 152.019 351.831 154.383 350.864C156.748 349.897 158.898 348.475 160.713 346.677C162.527 344.879 163.97 342.741 164.958 340.386C165.947 338.03 166.461 335.503 166.473 332.949L167.749 20.9974C167.78 15.8375 165.76 10.8767 162.134 7.20535C158.509 3.53405 153.573 1.45277 148.413 1.41902Z" fill="white"/>
</svg>
