<svg width="111" height="22" viewBox="0 0 111 22" fill="none" xmlns="http://www.w3.org/2000/svg">
<path d="M108.945 21.7817C109.16 21.7572 109.371 21.7006 109.573 21.6134C109.868 21.4834 110.125 21.2621 110.314 20.9751C110.502 20.688 110.615 20.3469 110.639 19.9907C110.639 18.0795 110.639 15.2909 110.639 11.7089C110.639 9.91796 110.639 7.91062 110.639 5.69894C110.639 5.15804 110.639 4.5931 110.639 4.02816C110.709 3.47997 110.603 2.9218 110.341 2.45354C110.194 2.22902 110.003 2.04594 109.783 1.91871C109.563 1.79149 109.32 1.72357 109.072 1.72032H107.409L92.0058 1.72032L2.84554 1.3477C2.61732 1.34333 2.39155 1.40114 2.1874 1.51624C1.98325 1.63134 1.80677 1.80032 1.67295 2.00881C1.41552 2.47897 1.3171 3.03804 1.39577 3.58342C1.39577 4.78542 1.39577 5.98742 1.39577 7.18942C1.39577 9.59342 1.39577 11.9974 1.39577 14.4014C1.39577 15.6034 1.39577 16.8054 1.39577 18.0074C1.35155 18.5672 1.35155 19.1304 1.39577 19.6902C1.45178 19.9302 1.55586 20.1525 1.70001 20.3401C1.84416 20.5276 2.02452 20.6754 2.22725 20.772C2.4373 20.8663 2.6622 20.9113 2.88818 20.9042H8.31412L31.99 21.0485L72.0716 21.3249L99.0947 21.5653L106.439 21.6615H108.348C108.785 21.6615 108.998 21.6615 108.998 21.6615H108.348H106.439H99.0947L72.0716 21.6615L31.99 21.5173L8.31412 21.4091H2.88818C2.58957 21.4227 2.29175 21.3654 2.01406 21.2408C1.73337 21.1057 1.48374 20.9002 1.28422 20.6398C1.0847 20.3794 0.940551 20.0711 0.862775 19.7383C0.801067 19.4228 0.779533 19.099 0.798817 18.7767V17.8872C0.798817 16.6852 0.798817 15.4832 0.798817 14.2812C0.798817 11.8772 0.798817 9.47322 0.798817 7.06922C0.798817 5.86722 0.798817 4.66522 0.798817 3.46322C0.778487 3.14309 0.778487 2.82174 0.798817 2.50161C0.838762 2.14803 0.960038 1.81238 1.1506 1.52799C1.33449 1.23785 1.57788 1.00215 1.86002 0.840993C2.14216 0.679835 2.45468 0.59801 2.77092 0.602468L91.9312 1.15538L107.335 1.27558L108.998 1.27558C109.291 1.27584 109.579 1.35572 109.839 1.50846C110.099 1.66121 110.322 1.88231 110.49 2.15304C110.791 2.67563 110.912 3.30382 110.831 3.91998C110.831 4.48492 110.831 5.04986 110.831 5.59076C110.831 7.7784 110.831 9.78574 110.831 11.6008C110.831 15.2068 110.757 17.9714 110.735 19.8946C110.709 20.2643 110.59 20.618 110.392 20.914C110.194 21.21 109.924 21.436 109.616 21.5653C109.414 21.7063 109.182 21.7812 108.945 21.7817Z" fill="#E0E0E0"/>
</svg>
