<svg width="6" height="6" viewBox="0 0 6 6" fill="none" xmlns="http://www.w3.org/2000/svg">
<path d="M5.20002 2.98975C5.17061 3.47396 5.01565 3.93775 4.7544 4.32347C4.49315 4.7092 4.13714 4.99984 3.73059 5.15928C3.32405 5.31872 2.88492 5.33995 2.46778 5.22028C2.05063 5.10061 1.67385 4.84532 1.38431 4.4862C1.09477 4.12707 0.905216 3.67991 0.839206 3.2003C0.773197 2.7207 0.833665 2.22982 1.01306 1.78863C1.19245 1.34744 1.48285 0.975431 1.84821 0.718832C2.21357 0.462234 2.63774 0.332369 3.06802 0.345371C3.659 0.385715 4.21264 0.684733 4.6109 1.17872C5.00917 1.6727 5.22056 2.32255 5.20002 2.98975Z" fill="#FD7401"/>
</svg>
