<svg width="111" height="22" viewBox="0 0 111 22" fill="none" xmlns="http://www.w3.org/2000/svg">
<path d="M108.038 21.5219C108.254 21.4932 108.468 21.449 108.678 21.3897C108.974 21.2834 109.247 21.1074 109.479 20.8732C109.711 20.6391 109.895 20.3521 110.021 20.0314C110.188 19.5459 110.254 19.0236 110.213 18.5049C110.213 17.9159 110.213 17.3029 110.213 16.5937C110.213 15.2114 110.213 13.6127 110.213 11.7857V4.15299C110.264 3.60039 110.156 3.044 109.904 2.56634C109.635 2.0854 109.223 1.72765 108.742 1.55666C108.211 1.44556 107.671 1.40923 107.132 1.44849L91.7926 1.44849L2.94148 1.07587C2.46357 1.07714 2.0023 1.27407 1.64348 1.63003C1.28466 1.98598 1.0527 2.47673 0.990702 3.01107C0.990702 4.21307 0.990702 5.41507 0.990702 6.61707C0.990702 9.02107 0.990702 11.4251 0.990702 13.8291C0.990702 15.0311 0.990702 16.2331 0.990702 17.4351C0.951005 17.9928 0.972484 18.554 1.05466 19.1059C1.18232 19.5963 1.45747 20.0213 1.83283 20.3079C2.22415 20.596 2.68859 20.7311 3.15468 20.6925H7.79177L31.3824 20.8368L71.3254 21.1132L98.2525 21.3536L105.576 21.4497H107.484C107.91 21.4497 108.124 21.4497 108.124 21.4497C108.124 21.4497 107.91 21.4497 107.484 21.4497H105.576H98.2525L71.3254 21.4497L31.3824 21.3175L7.79177 21.2094H3.15468C2.57762 21.2533 2.00397 21.0799 1.5237 20.7165C1.03864 20.3377 0.684639 19.7814 0.521659 19.1419C0.426115 18.5312 0.397472 17.9095 0.436377 17.2908C0.436377 16.0888 0.436377 14.8868 0.436377 13.6848C0.436377 11.2808 0.436377 8.87684 0.436377 6.47284C0.436377 5.27084 0.436377 4.06885 0.436377 2.80675C0.511739 2.12045 0.806841 1.48884 1.2662 1.03064C1.72555 0.572445 2.31752 0.319223 2.93081 0.318604L91.7819 0.871513L107.122 1.00375C107.693 0.96424 108.266 1.00867 108.827 1.13595C109.381 1.34001 109.848 1.76824 110.138 2.33795C110.414 2.86738 110.534 3.48191 110.48 4.09286C110.48 4.6578 110.48 5.22276 110.48 5.76366C110.48 7.93928 110.48 9.9346 110.48 11.7737C110.48 13.6127 110.48 15.1633 110.48 16.5817C110.48 17.2668 110.48 17.9039 110.48 18.4928C110.52 19.0305 110.444 19.5712 110.256 20.0675C110.117 20.3991 109.917 20.6932 109.669 20.9297C109.42 21.1662 109.13 21.3395 108.817 21.4377C108.567 21.5342 108.3 21.563 108.038 21.5219Z" fill="#E0E0E0"/>
</svg>
