<svg width="15" height="18" viewBox="0 0 15 18" fill="none" xmlns="http://www.w3.org/2000/svg">
<path opacity="0.1" d="M8.55269 9.46926C9.29321 9.10155 9.92147 8.49642 10.3593 7.72916C10.7971 6.9619 11.0252 6.06639 11.0151 5.15408C11.0427 4.56103 10.963 3.96784 10.7807 3.41067C10.5984 2.85349 10.3175 2.34398 9.95494 1.91319C9.59241 1.4824 9.15589 1.13934 8.67198 0.9049C8.18808 0.670464 7.66691 0.549561 7.14023 0.549561C6.61355 0.549561 6.09238 0.670464 5.60847 0.9049C5.12456 1.13934 4.68805 1.4824 4.32552 1.91319C3.96298 2.34398 3.68203 2.85349 3.49976 3.41067C3.31749 3.96784 3.23774 4.56103 3.26534 5.15408C3.2491 6.07553 3.47532 6.98174 3.91549 7.7583C4.35565 8.53487 4.98999 9.14698 5.73843 9.51735C-0.231166 10.527 0.0353603 17.8352 0.0353603 17.8352L14.1492 17.9073C14.1492 17.9073 14.4796 10.4669 8.55269 9.46926Z" fill="black"/>
</svg>
