<svg width="5" height="6" viewBox="0 0 5 6" fill="none" xmlns="http://www.w3.org/2000/svg">
<path d="M4.619 2.91781C4.63997 3.25668 4.59889 3.5968 4.4983 3.91699C4.39772 4.23719 4.23978 4.53064 4.0343 4.77906C3.82883 5.02748 3.58021 5.22558 3.30393 5.36102C3.02766 5.49647 2.72963 5.56633 2.42837 5.56633C2.12712 5.56633 1.82906 5.49647 1.55278 5.36102C1.27651 5.22558 1.02792 5.02748 0.822445 4.77906C0.616973 4.53064 0.459034 4.23719 0.358445 3.91699C0.257856 3.5968 0.216775 3.25668 0.237752 2.91781C0.216775 2.57894 0.257856 2.23882 0.358445 1.91863C0.459034 1.59843 0.616973 1.30498 0.822445 1.05656C1.02792 0.808137 1.27651 0.610077 1.55278 0.474634C1.82906 0.339191 2.12712 0.269287 2.42837 0.269287C2.72963 0.269287 3.02766 0.339191 3.30393 0.474634C3.58021 0.610077 3.82883 0.808137 4.0343 1.05656C4.23978 1.30498 4.39772 1.59843 4.4983 1.91863C4.59889 2.23882 4.63997 2.57894 4.619 2.91781Z" fill="#FD7401"/>
</svg>
