<svg width="17" height="19" viewBox="0 0 17 19" fill="none" xmlns="http://www.w3.org/2000/svg">
<path d="M10.2656 10.0167C11.1522 9.62623 11.9044 8.9837 12.4287 8.16902C12.9529 7.35433 13.2259 6.40347 13.2139 5.43478C13.2469 4.80506 13.1514 4.17522 12.9332 3.5836C12.7149 2.99198 12.3786 2.45099 11.9445 1.99357C11.5105 1.53615 10.9878 1.17188 10.4085 0.922957C9.8291 0.67403 9.20511 0.545654 8.57453 0.545654C7.94395 0.545654 7.31997 0.67403 6.7406 0.922957C6.16123 1.17188 5.6386 1.53615 5.20455 1.99357C4.7705 2.45099 4.43413 2.99198 4.2159 3.5836C3.99767 4.17522 3.90219 4.80506 3.93523 5.43478C3.91579 6.41317 4.18664 7.37539 4.71364 8.19996C5.24063 9.02453 6.00011 9.67447 6.8962 10.0677C-0.251043 11.1398 0.0680623 18.8997 0.0680623 18.8997L16.9662 18.9763C16.9662 18.9763 17.3618 11.076 10.2656 10.0167Z" fill="#FD7401"/>
</svg>
