<svg width="6" height="6" viewBox="0 0 6 6" fill="none" xmlns="http://www.w3.org/2000/svg">
<path d="M5.68632 3.22409C5.65148 3.73558 5.46785 4.22574 5.15805 4.63422C4.84824 5.04269 4.42578 5.35168 3.94263 5.52316C3.45949 5.69464 2.93676 5.72111 2.43876 5.59934C1.94076 5.47757 1.48922 5.21284 1.13972 4.83777C0.790214 4.46269 0.558014 3.99363 0.471655 3.48829C0.385297 2.98294 0.448554 2.46338 0.653666 1.99352C0.858778 1.52367 1.19678 1.12401 1.62608 0.843777C2.05538 0.563541 2.55726 0.414965 3.06993 0.416268C3.78881 0.442882 4.46783 0.753325 4.95824 1.27962C5.44865 1.80592 5.71045 2.50513 5.68632 3.22409Z" fill="#FD7401"/>
</svg>
