<svg width="132" height="24" viewBox="0 0 132 24" fill="none" xmlns="http://www.w3.org/2000/svg">
<path d="M128.966 23.0649C129.224 23.0333 129.48 22.9864 129.732 22.9245C130.088 22.8111 130.416 22.6225 130.694 22.3715C130.971 22.1205 131.192 21.813 131.34 21.4696C131.541 20.9543 131.62 20.3995 131.57 19.8487C131.57 19.2361 131.57 18.5724 131.57 17.8321C131.57 16.3516 131.57 14.6669 131.57 12.727V4.6225C131.631 4.03574 131.501 3.44497 131.2 2.93778C130.885 2.41763 130.39 2.03149 129.808 1.85294C129.173 1.7395 128.525 1.7052 127.881 1.75084L109.515 1.75084L3.13625 1.35519C2.56405 1.35654 2.01182 1.56562 1.58221 1.94358C1.15261 2.32154 0.874863 2.84266 0.800633 3.41002C0.800633 4.6225 0.800633 5.96261 0.800633 7.2389C0.800633 9.79149 0.800633 12.3441 0.800633 14.8967C0.800633 16.173 0.800633 17.4493 0.800633 18.7255C0.753089 19.322 0.778803 19.9221 0.877208 20.5124C1.03656 21.0299 1.36454 21.4792 1.8089 21.7886C2.28035 22.0878 2.83415 22.2308 3.39151 22.1971H5.16556H8.85405L37.0984 22.3375L84.9212 22.631L117.16 22.8863L125.928 22.9884H128.213H128.979H128.213H125.928H117.16L84.9212 22.9884L37.0729 22.9373L8.82852 22.8352H3.27665C2.58632 22.8761 1.90129 22.6926 1.32392 22.3119C0.743171 21.9096 0.31933 21.319 0.124199 20.64C0.0098065 19.9915 -0.0244872 19.3314 0.0220929 18.6745C0.0220929 17.3982 0.0220929 16.1219 0.0220929 14.8456C0.0220929 12.293 0.0220929 9.74043 0.0220929 7.18784C0.0220929 5.91155 0.0220929 4.63525 0.0220929 3.35896C0.115221 2.62917 0.471134 1.95833 1.02321 1.47204C1.57528 0.98574 2.28568 0.717332 3.02139 0.717041L109.401 1.30413L127.766 1.44452C128.45 1.40256 129.137 1.44976 129.808 1.58491C130.472 1.80158 131.031 2.25628 131.378 2.86121C131.708 3.42336 131.851 4.07589 131.787 4.7246C131.787 5.32446 131.787 5.91156 131.787 6.49865C131.787 8.80874 131.787 10.9274 131.787 12.8801C131.787 14.8329 131.787 16.4793 131.787 17.9853C131.787 18.7128 131.787 19.3892 131.787 20.0146C131.833 20.5854 131.741 21.1589 131.519 21.6865C131.353 22.0387 131.113 22.351 130.816 22.6021C130.519 22.8532 130.171 23.0372 129.796 23.1415C129.517 23.1646 129.236 23.1386 128.966 23.0649Z" fill="#E0E0E0"/>
</svg>
