<svg width="5" height="6" viewBox="0 0 5 6" fill="none" xmlns="http://www.w3.org/2000/svg">
<path d="M4.40966 2.95371C4.38055 3.43542 4.22719 3.89705 3.96843 4.28175C3.70967 4.66645 3.35681 4.95745 2.95328 5.11895C2.54974 5.28044 2.11314 5.30538 1.69719 5.1907C1.28125 5.07602 0.904108 4.82669 0.612194 4.47345C0.32028 4.12021 0.126339 3.67846 0.0542096 3.20253C-0.0179195 2.7266 0.0349143 2.23728 0.20623 1.79478C0.377547 1.35228 0.659852 0.975881 1.01842 0.711957C1.37698 0.448034 1.79617 0.308107 2.22437 0.309334C2.8248 0.334399 3.39193 0.626771 3.80154 1.12243C4.21115 1.61809 4.42981 2.2766 4.40966 2.95371Z" fill="#FD7401"/>
</svg>
