<svg width="5" height="6" viewBox="0 0 5 6" fill="none" xmlns="http://www.w3.org/2000/svg">
<path d="M4.44694 2.78549C4.41548 3.26899 4.25885 3.73143 3.99646 4.11547C3.73406 4.49952 3.37746 4.78825 2.97088 4.94588C2.56429 5.10351 2.12561 5.12309 1.70925 5.00219C1.29289 4.88129 0.917153 4.62525 0.628658 4.26579C0.340164 3.90634 0.151606 3.45927 0.0863542 2.98009C0.0211018 2.5009 0.0820247 2.01067 0.261586 1.57017C0.441148 1.12968 0.731451 0.758317 1.09646 0.502134C1.46148 0.245951 1.88515 0.116219 2.31494 0.12904C2.90784 0.169398 3.4631 0.47012 3.86166 0.966713C4.26022 1.46331 4.47033 2.11625 4.44694 2.78549Z" fill="#FD7401"/>
</svg>
