<svg width="6" height="6" viewBox="0 0 6 6" fill="none" xmlns="http://www.w3.org/2000/svg">
<path d="M5.55613 3.18576C5.58125 3.54557 5.53206 3.90671 5.41163 4.2467C5.2912 4.58669 5.1021 4.89828 4.85609 5.16205C4.61009 5.42583 4.31242 5.63617 3.98164 5.77998C3.65086 5.9238 3.29405 5.99798 2.93336 5.99798C2.57267 5.99798 2.21581 5.9238 1.88503 5.77998C1.55425 5.63617 1.25663 5.42583 1.01062 5.16205C0.764612 4.89828 0.575516 4.58669 0.455083 4.2467C0.334651 3.90671 0.285466 3.54557 0.310581 3.18576C0.285466 2.82595 0.334651 2.46481 0.455083 2.12482C0.575516 1.78483 0.764612 1.47324 1.01062 1.20947C1.25663 0.945691 1.55425 0.735388 1.88503 0.591574C2.21581 0.447759 2.57267 0.373535 2.93336 0.373535C3.29405 0.373535 3.65086 0.447759 3.98164 0.591574C4.31242 0.735388 4.61009 0.945691 4.85609 1.20947C5.1021 1.47324 5.2912 1.78483 5.41163 2.12482C5.53206 2.46481 5.58125 2.82595 5.55613 3.18576Z" fill="#FD7401"/>
</svg>
