<svg width="5" height="6" viewBox="0 0 5 6" fill="none" xmlns="http://www.w3.org/2000/svg">
<path d="M4.82863 2.88173C4.79953 3.36344 4.64616 3.82503 4.3874 4.20973C4.12864 4.59443 3.77578 4.88547 3.37225 5.04696C2.96871 5.20846 2.53211 5.2334 2.11616 5.11871C1.70022 5.00403 1.32308 4.75471 1.03117 4.40147C0.739251 4.04823 0.545277 3.60647 0.473148 3.13054C0.401019 2.65461 0.453885 2.16529 0.625202 1.72279C0.796518 1.28029 1.07882 0.903896 1.43739 0.639972C1.79595 0.376049 2.21511 0.236085 2.64331 0.237313C3.24374 0.262377 3.81087 0.554786 4.22048 1.05045C4.63009 1.5461 4.84878 2.20462 4.82863 2.88173Z" fill="#FD7401"/>
</svg>
