<svg width="6" height="6" viewBox="0 0 6 6" fill="none" xmlns="http://www.w3.org/2000/svg">
<path d="M5.28356 3.1091C5.24835 3.62324 5.06283 4.1157 4.75003 4.52526C4.43724 4.93482 4.01096 5.24343 3.52422 5.41272C3.03747 5.58202 2.51173 5.60452 2.0123 5.47746C1.51286 5.35039 1.06177 5.07936 0.715109 4.69804C0.368451 4.31672 0.141505 3.84192 0.0624733 3.33267C-0.0165583 2.82342 0.0558198 2.3022 0.270599 1.83374C0.485379 1.36528 0.833095 0.970278 1.27053 0.69782C1.70796 0.425361 2.21581 0.287431 2.73097 0.301237C3.43854 0.344074 4.10139 0.661612 4.57823 1.18613C5.05506 1.71064 5.30815 2.40066 5.28356 3.1091Z" fill="#FD7401"/>
</svg>
