<svg width="155" height="355" viewBox="0 0 155 355" fill="none" xmlns="http://www.w3.org/2000/svg">
<path d="M129.937 354.539L23.4538 353.986C17.3046 353.948 11.4201 351.159 7.09286 346.232C2.76562 341.306 0.34944 334.644 0.374956 327.71L1.50491 26.7173C1.51748 23.282 2.13034 19.8833 3.30849 16.7152C4.48663 13.5472 6.20696 10.6721 8.37111 8.25414C10.5353 5.83622 13.1008 3.92292 15.9211 2.62364C18.7414 1.32436 21.7611 0.664573 24.8077 0.681976L131.28 1.2349C137.429 1.26988 143.315 4.05546 147.644 8.97983C151.973 13.9042 154.392 20.5647 154.369 27.4986L153.239 328.479C153.227 331.916 152.614 335.316 151.436 338.485C150.258 341.654 148.538 344.531 146.374 346.951C144.211 349.371 141.645 351.286 138.825 352.588C136.004 353.89 132.984 354.553 129.937 354.539Z" fill="#455A64"/>
</svg>
