<svg width="6" height="6" viewBox="0 0 6 6" fill="none" xmlns="http://www.w3.org/2000/svg">
<path d="M5.4261 3.14747C5.39125 3.65896 5.20763 4.14908 4.89782 4.55756C4.58802 4.96603 4.16555 5.27506 3.68241 5.44654C3.19927 5.61801 2.67653 5.64449 2.17853 5.52272C1.68053 5.40095 1.22899 5.13622 0.879493 4.76114C0.529991 4.38607 0.297752 3.91701 0.211394 3.41166C0.125035 2.90632 0.188331 2.38676 0.393443 1.9169C0.598555 1.44705 0.936552 1.04739 1.36585 0.767156C1.79516 0.486919 2.297 0.338305 2.80967 0.339608C3.52854 0.366222 4.20756 0.676704 4.69798 1.203C5.18839 1.72929 5.45023 2.42851 5.4261 3.14747Z" fill="#FD7401"/>
</svg>
