<svg width="7" height="6" viewBox="0 0 7 6" fill="none" xmlns="http://www.w3.org/2000/svg">
<path d="M6.02361 3.04543C5.98595 3.55882 5.79842 4.04984 5.48426 4.45762C5.17011 4.86541 4.74316 5.17199 4.25636 5.33936C3.76957 5.50673 3.24435 5.52752 2.74585 5.39915C2.24735 5.27078 1.79749 4.99891 1.45209 4.61724C1.10668 4.23556 0.880924 3.76086 0.802799 3.25206C0.724674 2.74326 0.797615 2.22272 1.0126 1.755C1.22758 1.28728 1.57516 0.892968 2.01218 0.620951C2.4492 0.348934 2.95644 0.211183 3.47103 0.224797C4.18089 0.267649 4.84569 0.586959 5.32288 1.11425C5.80006 1.64153 6.05162 2.33484 6.02361 3.04543Z" fill="#FD7401"/>
</svg>
