<svg width="46" height="45" viewBox="0 0 46 45" fill="none" xmlns="http://www.w3.org/2000/svg">
<path d="M23 45C10.2944 45 0 34.9294 0 22.5C0 10.0706 10.2944 0 23 0C35.7056 0 46 10.0706 46 22.5C46 34.9294 35.7056 45 23 45ZM33.7581 18.5081H23V12.0756C23 11.1048 21.7944 10.6149 21.0988 11.3044L10.4984 21.7288C10.0625 22.1552 10.0625 22.8357 10.4984 23.2621L21.0988 33.6865C21.8036 34.376 23 33.8861 23 32.9153V26.4919H33.7581C34.3702 26.4919 34.871 26.002 34.871 25.4032V19.5968C34.871 18.998 34.3702 18.5081 33.7581 18.5081Z" fill="black"/>
</svg>
