<svg width="111" height="22" viewBox="0 0 111 22" fill="none" xmlns="http://www.w3.org/2000/svg">
<path d="M108.251 21.5399C108.467 21.5101 108.68 21.4659 108.891 21.4077C109.189 21.3009 109.463 21.1233 109.694 20.8869C109.926 20.6505 110.11 20.3608 110.234 20.0374C110.402 19.5522 110.468 19.0296 110.426 18.5109C110.426 17.9339 110.426 17.3089 110.426 16.6117C110.426 15.2174 110.426 13.6308 110.426 11.8037V4.17104C110.477 3.61844 110.369 3.06205 110.117 2.58439C109.854 2.09451 109.44 1.73085 108.955 1.5627C108.424 1.45586 107.883 1.42356 107.345 1.46654L92.0056 1.46654L3.15449 1.09392C2.67657 1.09519 2.21532 1.2921 1.8565 1.64806C1.49768 2.00402 1.2657 2.4948 1.2037 3.02914C1.2037 4.17104 1.2037 5.43314 1.2037 6.63514C1.2037 9.03914 1.2037 11.4431 1.2037 13.8471C1.2037 15.0491 1.2037 16.2511 1.2037 17.4531C1.16399 18.0149 1.18547 18.5801 1.26766 19.1359C1.40076 19.6233 1.6747 20.0465 2.04584 20.3379C2.43961 20.6197 2.90216 20.7543 3.36768 20.7226H4.84942H7.93016L31.5207 20.8548L71.4638 21.1313L98.3909 21.3717L105.714 21.4678H107.622H108.262H107.622H105.714H98.3909L71.4638 21.4678L31.4994 21.4197L7.90884 21.3236H3.27175C2.69516 21.3621 2.123 21.1892 1.64077 20.8308C1.15571 20.4519 0.801704 19.8956 0.638724 19.2561C0.54318 18.6454 0.514537 18.0237 0.553442 17.4051C0.553442 16.2031 0.553442 15.0011 0.553442 13.7991C0.553442 11.3951 0.553442 8.99105 0.553442 6.58705C0.553442 5.38505 0.553442 4.18305 0.553442 2.98105C0.631226 2.29374 0.928495 1.66195 1.38961 1.20397C1.85072 0.745978 2.44406 0.493194 3.05855 0.49292L91.9097 1.04583L107.249 1.17805C107.821 1.13854 108.394 1.18299 108.955 1.31027C109.509 1.51432 109.976 1.94256 110.266 2.51227C110.542 3.0417 110.661 3.65625 110.607 4.2672C110.607 4.83214 110.607 5.38506 110.607 5.93798C110.607 8.1136 110.607 10.1089 110.607 11.948C110.607 13.787 110.607 15.3376 110.607 16.756C110.607 17.4411 110.607 18.0782 110.607 18.6672C110.646 19.2047 110.569 19.7448 110.383 20.2418C110.245 20.5734 110.045 20.8675 109.797 21.104C109.548 21.3405 109.257 21.5138 108.944 21.6121C108.711 21.6338 108.477 21.6093 108.251 21.5399Z" fill="#E0E0E0"/>
</svg>
