<svg width="6" height="6" viewBox="0 0 6 6" fill="none" xmlns="http://www.w3.org/2000/svg">
<path d="M5.88061 3.00709C5.90573 3.3669 5.85652 3.728 5.73609 4.06799C5.61566 4.40798 5.42656 4.71956 5.18056 4.98334C4.93455 5.24712 4.6369 5.45746 4.30612 5.60127C3.97534 5.74509 3.61851 5.81931 3.25782 5.81931C2.89713 5.81931 2.54029 5.74509 2.20951 5.60127C1.87874 5.45746 1.58109 5.24712 1.33508 4.98334C1.08908 4.71956 0.899979 4.40798 0.779546 4.06799C0.659113 3.728 0.609929 3.3669 0.635044 3.00709C0.609929 2.64727 0.659113 2.28614 0.779546 1.94615C0.899979 1.60616 1.08908 1.29457 1.33508 1.0308C1.58109 0.767019 1.87874 0.556677 2.20951 0.412863C2.54029 0.269049 2.89713 0.194824 3.25782 0.194824C3.61851 0.194824 3.97534 0.269049 4.30612 0.412863C4.6369 0.556677 4.93455 0.767019 5.18056 1.0308C5.42656 1.29457 5.61566 1.60616 5.73609 1.94615C5.85652 2.28614 5.90573 2.64727 5.88061 3.00709Z" fill="#FD7401"/>
</svg>
