<svg width="35" height="32" viewBox="0 0 35 32" fill="none" xmlns="http://www.w3.org/2000/svg">
<path d="M17.5 32C7.83266 32 0 24.8387 0 16C0 7.16129 7.83266 0 17.5 0C27.1673 0 35 7.16129 35 16C35 24.8387 27.1673 32 17.5 32ZM25.6855 13.1613H17.5V8.5871C17.5 7.89677 16.5827 7.54839 16.0534 8.03871L7.9879 15.4516C7.65625 15.7548 7.65625 16.2387 7.9879 16.5419L16.0534 23.9548C16.5897 24.4452 17.5 24.0968 17.5 23.4065V18.8387H25.6855C26.1512 18.8387 26.5323 18.4903 26.5323 18.0645V13.9355C26.5323 13.5097 26.1512 13.1613 25.6855 13.1613Z" fill="black"/>
</svg>
