<svg width="6" height="6" viewBox="0 0 6 6" fill="none" xmlns="http://www.w3.org/2000/svg">
<path d="M5.02778 2.8455C4.99837 3.32971 4.84342 3.7935 4.58216 4.17922C4.32091 4.56495 3.96487 4.85559 3.55832 5.01503C3.15178 5.17447 2.71267 5.19566 2.29552 5.07599C1.87838 4.95633 1.50161 4.70107 1.21207 4.34195C0.92253 3.98282 0.732977 3.53566 0.666968 3.05605C0.600958 2.57645 0.661411 2.08557 0.840801 1.64438C1.02019 1.20319 1.31062 0.83118 1.67597 0.574582C2.04133 0.317983 2.4655 0.188082 2.89578 0.201084C3.48676 0.241428 4.0404 0.540482 4.43866 1.03447C4.83693 1.52845 5.04832 2.1783 5.02778 2.8455Z" fill="#FD7401"/>
</svg>
