<svg width="5" height="6" viewBox="0 0 5 6" fill="none" xmlns="http://www.w3.org/2000/svg">
<path d="M4.64575 2.74963C4.66672 3.0885 4.62563 3.42858 4.52504 3.74878C4.42445 4.06898 4.26651 4.36243 4.06104 4.61085C3.85556 4.85927 3.60696 5.05737 3.33068 5.19281C3.05441 5.32825 2.75637 5.39816 2.45511 5.39816C2.15385 5.39816 1.85581 5.32825 1.57953 5.19281C1.30326 5.05737 1.05465 4.85927 0.849179 4.61085C0.643706 4.36243 0.485768 4.06898 0.385178 3.74878C0.284589 3.42858 0.243509 3.0885 0.264486 2.74963C0.243509 2.41076 0.284589 2.07065 0.385178 1.75045C0.485768 1.43025 0.643706 1.1368 0.849179 0.888383C1.05465 0.639961 1.30326 0.441864 1.57953 0.306421C1.85581 0.170978 2.15385 0.101074 2.45511 0.101074C2.75637 0.101074 3.05441 0.170978 3.33068 0.306421C3.60696 0.441864 3.85556 0.639961 4.06104 0.888383C4.26651 1.1368 4.42445 1.43025 4.52504 1.75045C4.62563 2.07065 4.66672 2.41076 4.64575 2.74963Z" fill="#FD7401"/>
</svg>
